<svg xmlns="http://www.w3.org/2000/svg" xmlns:xlink="http://www.w3.org/1999/xlink" width="524" height="595" viewBox="0 0 524 595"><defs><path id="wjgca" d="M451 600c7-1 13-2 20 0 18 6 34 26 51 16 6-3 8-15 15-17 5-1 2 10 5 9 13.036-3.555 23.263-11.675 32.137-21.239 1.837-4.248 2.513-8.045.863-10.428 0 0-15.333 20.667-22.667 24 0 0 22-50 6-33.333 0 0 1.334-13.333-14.666 12 0 0 1.333-18-6.667 2.667C529 602.333 524.333 605 521.667 607c0 0-17.334 4-30.667-7.333-13.333-11.334-37.333-12.667-44-10l-32.667-17.334-5.822 12.892c14.007 7.01 29.554 10.974 43.489 19.775 0-2-1-3-1-5z"/><path id="wjgcb" d="M548.333 627.667s-.667-7.333 8-15.333c0 0 12.961-14.367 17.804-25.573-8.875 9.564-19.1 17.684-32.137 21.239-3 1 0-10-5-9-7 2-9 14-15 17-17 10-33-10-51-16-7-2-13-1-20 0 0 2 1 3 1 5-13.936-8.801-29.483-12.765-43.489-19.774l-12.845 28.44s30-2 45.334-2c0 0 18.666 6.668 44 7.334 24.98.658 28 2 31.333 4.667 0 0 11.333 16 22.667 12.667 0 0 14.666-.667 18.666 14 0 0 11.334-4.667-9.333-22.667z"/><path id="wjgcc" d="M381 620c9.219 4.11 33.631-12.937 33.845-22.852-1.741.157-3.731-.408-5.543-.125 8.691-1.858 16.593-15.651 16.543-23.872-2.49.717-4.066-.09-6.443 1.723 3.032-3.879 8.832-17.542 2.646-20.922-5.307-2.9-14.5 8.503-17.295 11.777C393.41 579.014 385.746 595.807 381 612z"/><path id="wjgcd" d="M403 576.5c0 30.652-20.147 55.5-45 55.5s-45-24.848-45-55.5 20.147-55.5 45-55.5 45 24.848 45 55.5z"/><path id="wjgce" d="M80 101c27 14 42 37 64 56a22.823 22.823 0 0 0 7.959 4.273c-6.205-10.304-1.753-23.656-8.658-34.522-6.213-9.777-17.031-21.458-27.301-27.025-7.458-4.044-33.266-9.074-37.724-.265.482.664 1.056 1.205 1.724 1.539z"/><path id="wjgcf" d="M144 157c-22-19-37-42-64-56-.668-.334-1.242-.875-1.724-1.539-.819 1.617-.919 3.699-.054 6.34 1.832 5.588 10.457 12.307 14.052 16.977 4.548 5.906 7.754 12.329 11.452 18.5 8.021 13.385 17.372 25.799 26.521 38.693 2.283 3.217 4.555 6.688 6.82 10.256.435-11.052 3.062-22.43 7.797-32.544A21.234 21.234 0 0 1 144 157z"/><path id="wjgcg" d="M179.952 185.2c-8.278-7.907-21.45-13.686-27.704-23.448-.102-.158-.192-.319-.29-.479a22.892 22.892 0 0 1-7.094-3.59c-4.735 10.114-7.362 21.492-7.797 32.543 7.359 11.59 14.639 24.232 21.933 32.774l11-10c3.818-4.493 9.975-7.427 13.977-11.778 6.02-6.545 3.093-9.225-4.025-16.023z"/><path id="wjgch" d="M138 174c-4.786-2.175-8.623-5.677-11.763-9.926C129.997 181.152 130 185 130 185c-9 41-7 80-7 80l34-42-5.94-49.504c-3.728 2.09-8.001 2.672-13.06.504z"/><path id="wjgci" d="M159.094 141.893c-.646 3.948-2.099 7.738-5.094 11.107-4 4-14 7-16 1-10-28-22-55-12-85 .827-2.687 1.957-5.286 3.34-7.635C102.04 87.683 126 163 126 163c.081.367.16.719.237 1.075 3.14 4.248 6.977 7.75 11.763 9.925 5.06 2.169 9.331 1.586 13.06-.503L151 173c5-6 9-23 9-23 .505-2.273.052-5.121-.906-8.107z"/><path id="wjgcj" d="M138 154c2 6 12 3 16-1 2.995-3.369 4.448-7.159 5.094-11.107C156.261 133.055 149 123 149 123c-3-8 5-29 5-29 2-33-17-38-17-38a29.74 29.74 0 0 0-7.661 5.365A36.094 36.094 0 0 0 126 69c-10 30 2 57 12 85z"/><path id="wjgck" d="M291 620s-48 18-104-58-54-110-54-110l26-81s51-95 86-67c0 0 45-62 67-22 0 0 32-44 54 19 0 0 20-23 3 60s-42 222-42 222z"/><path id="wjgcl" d="M85 383s-23-47 15-100c0 0 56-104 69-84 0 0 37-67 50-47 0 0 52-91 44-31 0 0 70-91 59-15 0 0 81-90 41 60 0 0 28-26 6 73 0 0 33-24-6 74 0 0-154 239-278 70z"/><path id="wjgcm" d="M369 239c22-99-6-73-6-73 40-150-41-60-41-60 6.961-48.097-18.519-29.309-38.166-9.03C275.647 108.946 268.79 122.315 261 134c-1-4 1-12-1-11-26 7-40 35-50 59 3 0 5-4 9-3-6 24-8 49-10 74 8-2 14-9 22-12 0 14-7 28-1 42 1 4 6 7 10 5 18-12 30-30 52-34 10-2 16 7 21 8 22 2 37 11 42 31 1.965 9.647 2.616 19.134 2.203 28.451C360.972 316.146 363 313 363 313c39-98 6-74 6-74z"/><path id="wjgcn" d="M166.897 220.937s37.365-60.987 50.494-42.782c0 0 52.513-82.834 44.434-28.218 0 0 70.691-82.834 59.582-13.654C321.407 136.283 391 36 358 165c0 0 2.381-.92 5.36-.361C402.5 16.56 322 105.999 322 105.999c11-76-59 15-59 15 8-60-44 31-44 31-13-20-50 47-50 47-13-20-69 84-69 84-11.32 15.79-17.226 31.047-19.94 44.687 3.392-9.583 8.82-19.806 17.156-30.287 0 0 56.553-94.667 69.681-76.462z"/><path id="wjgco" d="M367 243s13-7 14.291 12.149C385.697 226.866 369 239 369 239c18.941-85.234.821-77.814-4.584-74.102 7.749 2.345 17.956 15.752 2.584 78.102z"/><path id="wjgcp" d="M366 301c-7.555-21.636-16.29-30.651-24.503-33.164-13.813 4.58-24.043 16.868-32.497 29.164 0-8-7-14-14-13-27 6-39 30-52 52-1-4 0-15-5-11-32 26-45 67-45 107 6-3 7-13 16-14 0 29-20 61-2 90 0 1 4-1 6 0 12 5 24 12 37 14-2-25 5-51 24-68 23.898-20.401 54.592-40.796 86.14-48.523 3.071-15.756 6.073-30.871 8.86-44.477 17-83-3-60-3-60z"/><path id="wjgcq" d="M243 622c0 2 2 4 2 7-28.885-18.736-49.846-48.442-59.554-81.506C182.664 592.11 239 638 239 638c22 21 70 10 70 10 .474-.301.933-.609 1.393-.916-24.538.46-49.158-8.2-67.393-25.084z"/><path id="wjgcr" d="M245 629c0-3-2-5-2-7 18.235 16.884 42.855 25.544 67.393 25.084a71.88 71.88 0 0 0 2.391-1.662A22.716 22.716 0 0 1 307 644c-13-5-18-21-15-35 4-17 13-34 29-37 7.777-1.414 13.428 2.049 17.354 7.909C337.779 575.002 337 572 337 572c-16-36-53 12-53 12-17 35-84-14-84-14-30-49 46-77 46-77l-2-4c-42.046 15.645-57.21 36.921-58.554 58.494 9.708 33.064 30.669 62.77 59.554 81.506z"/><path id="wjgcs" d="M307 644a22.716 22.716 0 0 0 5.784 1.422c27.188-19.86 27.269-51.018 25.57-65.513-3.926-5.86-9.577-9.323-17.354-7.909-16 3-25 20-29 37-3 14 2 30 15 35z"/><path id="wjgct" d="M248 488c-15.686-7.39-31.265-53.202-12.274-64.274C257 411.323 251.561 479.486 251.5 488.5c-4-12.5-1.5-53.5-12.249-52.345C225 439 243 480.5 248 490z"/><path id="wjgcu" d="M253.5 489c.605-8.53-.371-17.382.488-26 .882-8.843.341-17.764-.488-26.5-1.766-18.603-3.85-36.993.5-55.526 1.979-8.433 4.973-18.024 8.587-25.887 3.639.093 7.859.007 11.913-.087-10.324 8.143-11.238 33.748-13 45.5-2.495 16.636-2.798 30.466-2 47 .361 7.479.546 15.837-.488 23.012-.613 4.248-4.855 17.156-3.512 19.488z"/><path id="wjgcv" d="M260 492c3.524-8.347 4-65.5 21.5-93 18.279-28.725 16.01-47.35 16.444-56.467-3.394-1.607-7.1-2.439-10.787-4.416 5.609 12.507-.142 35.797-6.472 46.674-27.185 46.709-20.653 105.644-23.004 107.223z"/><path id="wjgcw" d="M245 494c-.925-1.526-1.087-4.118-1.877-5.774 4.283-1.869 9.259-2.633 13.729-3.071.57 1.908.538 5.781-.003 7.694-4.235.086-7.724.725-11.849 1.151z"/><path id="wjgcx" d="M314.333 565.667s-14 44 0 46S335 587 335 583.667c0 0 11.333-8.667 18.666-8.667 0 0 12.667 24 28.667 28 0 0 20.776-4.862 37.333-27.333 9.334-12.667 2.667-25.333 4-26.667 0 0 14.667-15.333 14.667-34l-34.667-24-52 15.334-31.333 31.333z"/><path id="wjgcy" d="M388.333 593.333c-5-2-6.333-5.333-5.333-9.333 3-12 13-13 23-16-2 0-6 0-6-1-2-21 13.333-30.333-15-60-4.983-3.624-10.068-5.489-15.139-6.032l-18.194 5.365-31.334 31.334-6 28s-14 44 0 46S335 587 335 583.667c0 0 11.333-8.667 18.667-8.667 0 0 12.317 23.32 28 27.807-1.146-1.051-2.356-2.429-1.667-3.807 2-2 5.333-4.667 8.333-5.667zM369 548c-2.307-3.076-.471-6.141 2.317-6.944-.108-.016-.208-.042-.317-.056.109.014.209.04.317.056 7.784 1.146 11.724 8.026 14.683 13.944 2 5 2 10-2 14-3-8-9-14-15-21z"/><path id="wjgcz" d="M426.667 536c-4-9-15 .667-19.667 6-1.908 5.727-3.806 11.455-1.368 18.051-.17-2.537.783-5.051 2.368-5.051 11.334.667 15-2.667 18.667-19z"/><path id="wjgcA" d="M360.333 527.667s-5.333 10.667-4 16c0 0-6.667-5.333-7.333-12 0 0-10.335-13.975-11.334 6-.666 13.333 4.667 12.667 4.667 12.667s-12 32.666-36 25.333c-24-7.333-66.667-66-42-140s70.163-43.211 88-80c10.667-22 2-30.667 2-30.667S425.666 420.334 419 472.334c0 0 54.666 26 18 64 0 0 2-7.334.666-10.667 0 0-10 4-15.333.667 0 0 3.333-5.334 4-8 0 0-18 6.666-24.667 3.333 0 0 2.667-3.333 4.667-7.333 0 0-18 10.666-27.333 5.333 0 0 1.333-2 .666-6.667 0 0-13.333 14-19.333 14.667z"/><path id="wjgcB" d="M419 472.333c5.503-42.924-42.138-115.368-58.937-139.35 4.116 14.738 5.491 30.107 5.018 45.512A9.75 9.75 0 0 1 365 381c.036-.835.056-1.67.081-2.505-.422-4.7-3.935-8.37-3.081-13.495-5 17-5 35-4 52-4-8-8-17-8-26-6 29-13 65 10 84 6 4 23-7 36-7-6 5-12 9-20 12 5 1 9 3 14 2-7 2-15 4-22 0 6 8 17 10 26 11-5 1-10 5-16 5 8 5 19 5 27 0-4 9-14 11-19 18 4 0 9 0 13-2-2.192 2.922-4.787 4.905-7.584 6.398 7.677-1.779 14.917-6.065 14.917-6.065-2 4-4.666 7.333-4.666 7.333 6.666 3.334 24.666-3.333 24.666-3.333-.666 2.667-4 8-4 8 5.334 3.333 15.334-.667 15.334-.667C439 529 437 536.333 437 536.333c36.667-38-18-64-18-64z"/><path id="wjgcC" d="M392 550.5s-10 .75-18-9.5c0 0 6.25-12.5 15.75-10 0 0 9.25 7.5 2.25 19.5z"/><path id="wjgcD" d="M387.727 537.678c-2.473-.108-4.799 2.488-5.194 5.8-.396 3.31 1.289 6.081 3.762 6.19 2.473.108 4.799-2.489 5.194-5.799.396-3.31-1.289-6.083-3.762-6.19z"/><path id="wjgcE" d="M387.536 541.986c-1.164-.051-2.258 1.171-2.444 2.729-.186 1.558.606 2.862 1.77 2.913 1.164.051 2.258-1.171 2.444-2.729.187-1.558-.606-2.862-1.77-2.913z"/><path id="wjgcF" d="M387.266 541.85c-.152.838.276 1.594.956 1.687.68.093 1.355-.512 1.507-1.352.152-.839-.277-1.595-.957-1.688-.68-.093-1.354.513-1.506 1.352z"/><path id="wjgcG" d="M379 546s-5.667-3.667-10-9c0 0 1.667 0 3.667.667 0 0 19-18 21.666 1 0 0-4.666-17.334-19 1.333 0 0 1.667 4.333 3.667 6z"/><path id="wjgcH" d="M406.5 553.25s1.5-12.5 14-12.75c0 0 4.5.75-2.25 12.25-.417-.083-5.75 3.75-11.75.5z"/><path id="wjgcI" d="M413.241 544.69c-1.583-.049-3.359 2.16-3.967 4.932-.608 2.773.182 5.06 1.765 5.108 1.583.05 3.36-2.16 3.967-4.932.608-2.773-.182-5.06-1.765-5.109z"/><path id="wjgcJ" d="M412.659 548.292c-.745-.023-1.581 1.016-1.867 2.32-.286 1.306.086 2.382.83 2.405.746.023 1.58-1.016 1.868-2.321.286-1.305-.086-2.381-.831-2.404z"/><path id="wjgcK" d="M412.499 548.182c-.187.704.008 1.328.437 1.394.428.066.927-.45 1.115-1.155.187-.704-.008-1.328-.437-1.394-.428-.066-.928.451-1.115 1.155z"/><path id="wjgcL" d="M413.375 554.25s3.026.151 7.75-1.75c0 0-.471.048-1.75-.25 0 0 11.875-20.25-7.625-9 0 0 17-9.5 5.625 9 0 0-1.879 1.543-4 2z"/><path id="wjgcM" d="M396.914 526.423l.434-1.779s-9.444-6.48-19.798 2.015c0 0 5.117-2.358 9.199-3.015 4.082-.656 10.165 2.78 10.165 2.78z"/><path id="wjgcN" d="M417.165 534.146l.18-1.927s7.218-4.665 11.295 6.3c0 0-2.467-3.522-4.737-5.07-2.27-1.547-6.738.697-6.738.697z"/><path id="wjgcO" d="M402.5 575.25c.344-2.608-2.405-.668-4.694-.944-4.076-.491-5.785-2.933-9.556-.306-3.077 2.144-8.25 9-8.25 9s1.25 9.75 8.25 10.75c8.75 1.25 10.5-5.5 8.5-10.25 0 0 5.447-5.959 5.75-8.25z"/><path id="wjgcP" d="M395.5 581.25s-3.5.25-4.25-.75c0 0-6.5 4 1.25 5 0 0 2-3.5 3-4.25z"/><path id="wjgcQ" d="M320.667 522.333c6.333-19 17.667-23.667 19.53-26.536-.538-6.355-9.863-16.13-22.281-15.512 1.094.97 2.09 2.47 3.016 3.262-8.917-1.582-12.201-9.019-16.448-15.83-.144 2.048-.366 4.328-.153 6.417-.883-6.519-5.57-12.045-5.995-19.134-.424-7.05 1.01-13.592 2.547-19.768-9.38 12.495-11.555 23.286-12.7 38.383-.53-.902-1.842-1.939-2.548-3.048.27 17.34 8.017 23.631 15.963 38.15-2.943-.295-5.807-1.629-7.798-3.649 6.534 22.598 26.867 17.265 26.867 17.265z"/><path id="wjgcR" d="M353 488.333c-20.83-.819-41.866-24.434-46.667-44-2.945-12.005-1.944-22.232 3.482-33.333 4.467-9.14 10.461-17.09 12.37-27.334 3.128-16.784-8.782-25.039-11.833-39.965-1.985-9.714.434-32.55 9.981-37.95 4.255 5.048 12.57 8.376 18.601 9.384-5.16 10.095-5.538 16.848-.598 27.198 4.735 9.921 7.81 19.838 6.032 31.333-1.56 10.083-8.811 19.544-13.87 28.035-5.647 9.48-8.336 17.38-8.98 28.484-1.457 25.146 11.609 41.04 31.482 54.148z"/><path id="wjgcS" d="M325 357c-1-2 1-5 1-7 4 9 7 18 6 28-5 25-27 43-19 68 5.934 17.803 21.213 32.009 39.132 37.75-19.382-12.998-32.049-28.789-30.614-53.565.644-11.103 3.333-19.004 8.98-28.484 5.059-8.491 12.31-17.951 13.87-28.034 1.778-11.496-1.297-21.413-6.032-31.334-4.94-10.35-4.562-17.103.598-27.198-5.676-.948-13.371-3.953-17.805-8.511C316.334 323.055 317.864 341.3 325 357z"/><path id="wjgcT" d="M388.333 469.667c-15.007-3.446-26.589-26.69-27.01-44.287-.258-10.798 2.073-19.535 7.756-28.45 4.68-7.34 10.281-13.446 13.274-22.078 4.904-14.145-2.456-22.867-2.332-36.212.081-8.685 5.42-28.171 13.202-31.6 2.301 4.937 7.82 8.916 12.044 10.582-5.33 8.076-6.665 13.883-4.699 23.508 1.885 9.225 2.565 18.229-.529 27.964-2.714 8.539-9.467 15.79-14.473 22.49-5.59 7.479-8.783 13.977-10.99 23.52-5.002 21.616 2 37.115 14.384 51.094z"/><path id="wjgcU" d="M388.58 352.096c-.414-1.866 1.51-4.205 1.823-5.939 1.495 8.33 2.264 16.53-.03 25.07-7.553 21.023-26.36 33.742-24.467 56.473 1.52 16.22 10.395 30.545 22.515 37.878-12.045-13.818-18.774-29.176-13.846-50.473 2.208-9.545 5.401-16.043 10.991-23.522 5.006-6.699 11.76-13.95 14.473-22.489 3.094-9.736 2.414-18.74.53-27.965-1.967-9.625-.633-15.43 4.698-23.508-3.975-1.567-9.096-5.184-11.603-9.72-6.06 13.62-7.809 29.643-5.085 44.195z"/><path id="wjgcV" d="M421 473.5s-31-15.5-69.5 15c0 0-36-1.5-15-34 0 0-6-5-5.5-11 0 0 .5-16 10-23.5 0 0 12.5-11 19.5 2s14.5 30.5 14.5 30.5l9.5 9s5.5-2 6.5 1c0 0 20-29.5 37-34.5 0 0 11 0-.5 24.5 0 0 9.5 5.5-6.5 21z"/><path id="wjgcW" d="M391.285 462.087c-.182.261-.285.413-.285.413a2.202 2.202 0 0 0-.315-.6 47.322 47.322 0 0 1-3.194-1.03c-1.544.107-2.991.63-2.991.63l-4.21-3.989c-11.638-6.645-19.473-17.568-27.29-28.51-1-1-2-7 0-6 9.028 4.103 13.344 14.265 19.023 22.754-2.828-6.287-7.266-15.85-11.523-23.755-7-13-19.5-2-19.5-2-1.733 1.368-3.164 3.022-4.35 4.807-4.263 16.526 9.41 32.74 26.35 39.193-3 5-8 6-13 8 12 2 23-3 34-7 0 1.398.975 2.308 1.22 3.413.394-1.412 1.316-2.68 2.78-3.413 2-1 4 1 5 3 0-2.714-.82-5.42-1.715-5.913z"/><path id="wjgcX" d="M421 441c-4 11-14 18-23 25 9-2 22-12 29-4 1-5-2-10-7-8 2.137-7.835 9.849-14.656 12.307-22.268C431.134 428.003 428 428 428 428c-9.074 2.669-18.994 12.311-26.277 20.724 6.516-4.909 13.412-8.897 19.277-7.724z"/><path id="wjgcY" d="M200 587S85 495 78 365c0 0-1-37 27-46 0 0 7-26 30-35 0 0 25-40 41-30 0 0-36 229 24 333z"/><path id="wjgcZ" d="M117 380c2 0 5-1 7 1 0-11 2-22 9-31 5-6 14-10 21-9 2-11 8.216-17.825 14.779-22.411a1142.57 1142.57 0 0 1 1.717-19.159C160.243 299.445 152.5 314.2 148 316c-19 6-33 26-34 44-16-3-25 17-31 29a32.252 32.252 0 0 0-1.577 5.224 252.865 252.865 0 0 0 5.063 22.236C92.113 401.343 103.663 388.002 117 380z"/><path id="wjgcaa" d="M308 559.5c0 30.652-20.147 55.5-45 55.5s-45-24.848-45-55.5 20.147-55.5 45-55.5 45 24.848 45 55.5z"/><path id="wjgcab" d="M245 597c-16.354 12.895-26.768-19.882-29-32-1.491-8.096-2.254-18.138.751-26.023 2.375-6.232 12.079-15.931 13.22-3.303 3.221-13.102 23.309-23.045 21.203-2.806C266.188 520.158 264.593 548.269 264 558c-.791 12.982-5.043 24.143-12 35z"/><path id="wjgcac" d="M185 584c-3-3-8-4-12-6 22 3 51 13 66-4 8.495-9.994 3.256-18.49-6.233-25.612-.255-.13-.505-.261-.767-.388 0 0-18 3-41 20 0 0-16-16-51 7-5.564 3.656-10.313 6.549-14.409 8.846 18.774 6.692 40.143 5.18 59.409.154z"/><path id="wjgcad" d="M232.767 548.388c9.489 7.122 14.728 15.618 6.233 25.612-15 17-44 7-66 4 4 2 9 3 12 6-19.265 5.026-40.634 6.538-59.408-.154-21.666 12.15-24.863 7.472-31.592 9.154l5 14s24-4 38 0 56 2 61-4c0 0 43-3 47-6 0 0 17.689-33.424-12.233-48.612z"/><path id="wjgcae" d="M104 578c-8 1-20 0-24 8-8.683-7.719-16.444-15.429-26.858-20.453 2.005 3.625 6.006 6.781 8.763 9.322 6.203 5.718 9.077 7.035 10.638 14.963 7.817 39.68 23.443 23.529 23.443 23.529 9.287 10.96 19.632-1.995 30.52-10.726C119.502 601.004 111.683 601 105 601c-10-1-10-16-1-23z"/><path id="wjgcaf" d="M145.255 596.899c5.11-14.083-20.058-3.315-25.362-5.113-8.386-2.843-4.415-8.585-4.594-17.302-.823-40.01 7.866-47.392.983-47.704-5.15-3.218-11.574 31.276-11.805 43.405-9.646-7.63.965-46.277-7.016-47.325-7.417 1.413-6.566 34.953-6.673 47.203-3.342-13.8-3.926-27.585-4.904-41.375-.901-.492-1.652-.95-2.334-1.558-8.476 16.047.59 31.436-4.237 47.869-11.4-.144-17.117-13.44-26.893-16.531-.975 2.512-.493 4.882.722 7.079C63.556 570.57 71.317 578.282 80 586c4-8 16-7 24-8-9 7-9 22 1 23 6.682 0 14.502.004 21.505 1.636 6.109-4.9 12.389-8.47 18.749-5.737z"/></defs><g><g transform="translate(-52 -56)"><g><use fill="#edc1ae" xlink:href="#wjgca"/></g><g><use fill="#e2b6a6" xlink:href="#wjgcb"/></g><g><use fill="#c5d0d3" xlink:href="#wjgcc"/></g><g><use fill="#527fa3" xlink:href="#wjgcd"/></g><g><use fill="#231f20" xlink:href="#wjgce"/></g><g><use xlink:href="#wjgcf"/></g><g><use fill="#999" xlink:href="#wjgcg"/></g><g><use fill="#c5d0d3" xlink:href="#wjgch"/></g><g><use xlink:href="#wjgci"/></g><g><use fill="#231f20" xlink:href="#wjgcj"/></g><g><use fill="#4c6d84" xlink:href="#wjgck"/></g><g><use fill="#4c6d84" xlink:href="#wjgcl"/></g><g><use fill="#527fa3" xlink:href="#wjgcm"/></g><g><use fill="#ea8807" xlink:href="#wjgcn"/></g><g><use fill="#ea8807" xlink:href="#wjgco"/></g><g><use fill="#4d7793" xlink:href="#wjgcp"/></g><g><use fill="#4d7793" xlink:href="#wjgcq"/></g><g><use fill="#b3c1c4" xlink:href="#wjgcr"/></g><g><use fill="#c5d0d3" xlink:href="#wjgcs"/></g><g><use fill="#b3c1c4" xlink:href="#wjgct"/></g><g><use fill="#b3c1c4" xlink:href="#wjgcu"/></g><g><use fill="#b3c1c4" xlink:href="#wjgcv"/></g><g><use fill="#b3c1c4" xlink:href="#wjgcw"/></g><g><use fill="#edc1ae" xlink:href="#wjgcx"/></g><g><use fill="#d6a492" xlink:href="#wjgcy"/></g><g><use fill="#d6a492" xlink:href="#wjgcz"/></g><g><use fill="#ea8807" xlink:href="#wjgcA"/></g><g><use fill="#fc9e15" xlink:href="#wjgcB"/></g><g><use fill="#fff" xlink:href="#wjgcC"/></g><g><use fill="#238baf" xlink:href="#wjgcD"/></g><g><use xlink:href="#wjgcE"/></g><g><use fill="#fff" xlink:href="#wjgcF"/></g><g><use xlink:href="#wjgcG"/></g><g><use fill="#fff" xlink:href="#wjgcH"/></g><g><use fill="#238baf" xlink:href="#wjgcI"/></g><g><use xlink:href="#wjgcJ"/></g><g><use fill="#fff" xlink:href="#wjgcK"/></g><g><use xlink:href="#wjgcL"/></g><g><use fill="#ea8807" xlink:href="#wjgcM"/></g><g><use fill="#ea8807" xlink:href="#wjgcN"/></g><g><use fill="#af3312" xlink:href="#wjgcO"/></g><g><use fill="#fff" xlink:href="#wjgcP"/></g><g><use fill="#fc9e15" xlink:href="#wjgcQ"/></g><g><use fill="#b3c1c4" xlink:href="#wjgcR"/></g><g><use fill="#c5d0d3" xlink:href="#wjgcS"/></g><g><use fill="#b3c1c4" xlink:href="#wjgcT"/></g><g><use fill="#c5d0d3" xlink:href="#wjgcU"/></g><g><use fill="#b3c1c4" xlink:href="#wjgcV"/></g><g><use fill="#c5d0d3" xlink:href="#wjgcW"/></g><g><use fill="#c5d0d3" xlink:href="#wjgcX"/></g><g><use fill="#c5d0d3" xlink:href="#wjgcY"/></g><g><use fill="#ea8807" xlink:href="#wjgcZ"/></g><g><use fill="#527fa3" xlink:href="#wjgcaa"/></g><g><use fill="#c5d0d3" xlink:href="#wjgcab"/></g><g><use fill="#edc1ae" xlink:href="#wjgcac"/></g><g><use fill="#d6a492" xlink:href="#wjgcad"/></g><g><use fill="#e2b6a6" xlink:href="#wjgcae"/></g><g><use fill="#edc1ae" xlink:href="#wjgcaf"/></g></g></g></svg>