<svg id="Layer_4" xmlns="http://www.w3.org/2000/svg" viewBox="0 0 500 90"><style>.st73{fill:#fff;stroke:#fff;stroke-miterlimit:10}</style><linearGradient id="SVGID_1_" gradientUnits="userSpaceOnUse" x1="62.208" y1="87.294" x2="62.208" y2="66.328"><stop offset=".423" stop-color="#eff0f0"/><stop offset=".442" stop-color="#eaebea"/><stop offset=".472" stop-color="#e7e8e6"/><stop offset=".813" stop-color="#fff"/></linearGradient><path d="M80.8 70l-14.2-2-.1.3s-4.7.9-9.4 5.6c0 0-4.4 3.7-5.6-.9 0 0-1.1-2.3 2.2-3.1 3.3-.8 3.7.8 3.7 1.2 0 0 1.4.4 1.9-1.1s-6.7-6.3-11.8-2.1c-5.1 4.1.2 8.7 1.7 8.8 0 0-.2.6.6.5 0 0-2.2 1.3-2.9 3.3-.6 2-1.2 4.1-3.3 4.6-2.1.5 0 1.9.6 2.1.6.2 3.2-.3 5.8 0 2.6.3 7.2-1.5 8.3-4.9 0 0 2.1 4 6.1 2 0 0 6-4 1.7-9.6 0 0-1.8-.3-1.4 1.7 0 0 1.4 2.1-1.5 3.2 0 0-3.6.6-2.5-3.7 1.1-4.2 8.2-7.1 11.4-4.3 3.3 2.8 6.7 6.2.9 12 0 0-2 1.3-3.4 1.3 0 0-1 1.3 0 1.8 0 .1 16.2 1.2 11.2-16.7zM55 83c-2.5 2.1-4.8 1.9-5.2 2.1 0 0 1.9-.9 2.6-2.7.7-1.8 3.5-4.1 4.8-4.4 0 0 .3 2.9-2.2 5z" fill="url(#SVGID_1_)" stroke="#e7e6e6" stroke-width=".278" stroke-miterlimit="10"/><linearGradient id="SVGID_2_" gradientUnits="userSpaceOnUse" x1="140.819" y1="87.294" x2="140.819" y2="66.328"><stop offset=".423" stop-color="#eff0f0"/><stop offset=".442" stop-color="#eaebea"/><stop offset=".472" stop-color="#e7e8e6"/><stop offset=".813" stop-color="#fff"/></linearGradient><path d="M133.5 86.8c1-.6 0-1.8 0-1.8-1.4 0-3.4-1.3-3.4-1.3-5.9-5.8-2.4-9.2.9-12 3.3-2.8 10.3.1 11.4 4.3 1.1 4.2-2.5 3.7-2.5 3.7-2.9-1.1-1.5-3.2-1.5-3.2.4-2-1.4-1.7-1.4-1.7-4.3 5.6 1.7 9.6 1.7 9.6 4 2.1 6.1-2 6.1-2 1 3.4 5.6 5.2 8.3 4.9 2.6-.3 5.2.2 5.8 0 .6-.2 2.8-1.6.6-2.1-2.1-.5-2.7-2.6-3.3-4.6-.6-2-2.9-3.3-2.9-3.3.9.2.6-.5.6-.5 1.5-.2 6.8-4.7 1.7-8.8-5.1-4.1-12.3.6-11.8 2.1s1.9 1.1 1.9 1.1c0-.4.3-2 3.7-1.2 3.3.8 2.2 3.1 2.2 3.1-1.2 4.5-5.6.9-5.6.9-4.8-4.8-9.4-5.6-9.4-5.6l-.1-.3-14.2 2c-5.1 17.8 11.2 16.7 11.2 16.7zm12.3-8.8c1.3.2 4.1 2.5 4.8 4.4.7 1.8 2.6 2.7 2.6 2.7-.5-.2-2.7 0-5.2-2.1s-2.2-5-2.2-5z" fill="url(#SVGID_2_)" stroke="#e7e6e6" stroke-width=".278" stroke-miterlimit="10"/><path d="M71.7 10.2c3.7-1.5 7.9-2.6 12.4-3.4 4.9-.9 9.8-1.2 14-1.4 1.6-.1 3.2-.1 4.8-.1 9.4 0 18.4 1.3 25.9 3.9 2.3.8 4.3 1.6 6.3 2.5 13.5 6.3 16.2 13.9 16.2 13.9l-1.4 4.8c-.1.1-.1.3-.1.4-1.5 4.7-4 12.9-6 19.5-2.1 6.8-3.2 10.6-3.5 11.4-.8 2.3-2.1 4-3.1 5.1-4.4 5.1-10.6 8.4-16 11-5.4 2.6-10.7 4.7-15.8 6.4-.2.1-.4.1-.6.2-.8.3-1.6.6-2.6.7h-.4c-1.3 0-2.4-.5-3.3-.8-.2-.1-.4-.1-.5-.2-5-1.7-10.7-3.8-15.8-6.4-5.8-2.9-11.8-6.1-15.9-11-1.1-1.3-2.3-2.9-3.1-5.1C62 58 57.9 44 55.4 35.7c-.6-2.2-1.2-3.9-1.5-5.1 0-.1-.1-.3-.2-.5l-1.6-4.7c-.2.1 3.1-8.8 19.6-15.2z" fill="#666768" stroke="#666768" stroke-width="4.128" stroke-miterlimit="10"/><linearGradient id="SVGID_3_" gradientUnits="userSpaceOnUse" x1="93.714" y1="2.841" x2="118.981" y2="79.736"><stop offset="0" stop-color="#fff"/><stop offset=".066" stop-color="#fbfbfb"/><stop offset=".131" stop-color="#eff0f0"/><stop offset=".195" stop-color="#dcdcdd"/><stop offset=".26" stop-color="#c0c1c3"/><stop offset=".323" stop-color="#9d9ea1"/><stop offset=".34" stop-color="#929497"/><stop offset=".358" stop-color="#9e9fa2"/><stop offset=".409" stop-color="#b8b9bc"/><stop offset=".465" stop-color="#cccecf"/><stop offset=".528" stop-color="#dbdcdd"/><stop offset=".603" stop-color="#e3e4e6"/><stop offset=".725" stop-color="#e6e7e8"/><stop offset=".907" stop-color="#fff"/></linearGradient><path d="M71.7 10.2c3.7-1.5 7.9-2.6 12.4-3.4 4.9-.9 9.8-1.2 14-1.4 1.6-.1 3.2-.1 4.8-.1 9.4 0 18.4 1.3 25.9 3.9 2.3.8 4.3 1.6 6.3 2.5 13.5 6.3 16.2 13.9 16.2 13.9l-1.4 4.8c-.1.1-.1.3-.1.4-1.5 4.7-4 12.9-6 19.5-2.1 6.8-3.2 10.6-3.5 11.4-.8 2.3-2.1 4-3.1 5.1-4.4 5.1-10.6 8.4-16 11-5.4 2.6-10.7 4.7-15.8 6.4-.2.1-.4.1-.6.2-.8.3-1.6.6-2.6.7h-.4c-1.3 0-2.4-.5-3.3-.8-.2-.1-.4-.1-.5-.2-5-1.7-10.7-3.8-15.8-6.4-5.8-2.9-11.8-6.1-15.9-11-1.1-1.3-2.3-2.9-3.1-5.1C62 58 57.9 44 55.4 35.7c-.6-2.2-1.2-3.9-1.5-5.1 0-.1-.1-.3-.2-.5l-1.6-4.7c-.2.1 3.1-8.8 19.6-15.2z" fill="url(#SVGID_3_)"/><path d="M146.4 26.7c-.8-1.7-2.1-3.4-3.5-4.7-4-4.2-9.4-7.1-15.5-9.1-8.1-2.7-18.4-4.1-29.3-3.6-4.9.2-9.3.6-13.5 1.3-4.2.7-8.1 1.8-11.6 3.2-5.9 2.4-11.6 5.9-15 10.9-.5.7-1.3 1.8-1.3 2.4-.1.7.4 1.8.7 2.5 1.7 5.7 7.7 26.4 9.3 30.8.5 1.5 1.4 2.7 2.3 3.9 3.7 4.3 9.4 7.4 14.7 10 4.7 2.4 10.1 4.4 15.4 6.2.8.3 1.8.8 2.6.8.6 0 1.5-.5 2.3-.8 5.4-1.8 10.7-4 15.4-6.3 5.5-2.6 10.9-5.6 14.8-10 .9-1.1 1.8-2.3 2.3-3.8.5-1.5 6.7-22.1 9.5-30.8.2-.9.8-2.2.4-2.9z" fill="#0a3647"/><g fill="none"><path d="M101.5 77.1c-.5 0-1.2-.3-1.7-.5-.2-.1-.4-.2-.7-.3-4.6-1.6-10.4-3.7-15.3-6.2-5.4-2.7-11-5.7-14.6-10-.9-1-1.8-2.2-2.3-3.8-1.2-3.6-5.3-13.4-7.7-21.7-.6-2.2-1.2-4-1.5-5.2-.1-.2-.1-.5-.2-.7-.2-.6-.5-1.2-.4-1.7 0-.5.7-1.5 1.2-2.1l.1-.2c3.8-5.5 10.2-8.9 14.9-10.8 3.5-1.4 7.3-2.5 11.6-3.2 3.7-.7 7.8-1 13.5-1.3 1.5-.1 3-.1 4.6-.1 9 0 17.5 1.3 24.6 3.7 6.6 2.2 11.7 5.2 15.4 9 1.6 1.7 2.8 3.3 3.4 4.7.2.5-.1 1.4-.3 2.2-.1.2-.1.4-.2.5-1.5 4.7-4 9-6 15.6-1.7 5.7-3.2 10.5-3.5 11.2-.6 1.6-1.6 2.9-2.3 3.7-3.9 4.5-9.3 7.5-14.7 10-5.3 2.5-10.5 4.6-15.4 6.2-.3.1-.6.2-.8.3-.5.2-1.1.4-1.4.4-.2.3-.2.3-.3.3z" stroke="#0a3647" stroke-width=".278"/><path d="M57.1 27.1c0-.4.6-1.3 1.1-2l.1-.1.1-.2c3.7-5.3 9.7-8.7 14.4-10.6.2-.1.3-.1.5-.2 3.3-1.3 7.1-2.4 11.1-3.1.1 0 .3-.1.4-.1 3.7-.7 7.8-1 13.5-1.3 1.5-.1 3-.1 4.6-.1 9 0 17.5 1.3 24.6 3.7 6.6 2.2 11.6 5.2 15.4 9 1.4 1.4 2.4 2.8 3.1 4 .1.2.2.4.3.7.1.2.1.4.1.7-.1.5-.2 1-.4 1.5-.1.2-.1.4-.2.5-1.5 4.7-4 8.9-6 15.5-1.7 5.6-3.2 10.5-3.5 11.2l-.3.6c-.6 1.3-1.4 2.4-2 3.1-3.9 4.5-9.3 7.4-14.7 10-5.3 2.5-10.4 4.6-15.4 6.2-.3.1-.5.2-.8.3-.2.1-.3.1-.5.2-.4.1-.7.2-.9.3h-.1c-.2 0-.5 0-.7-.1-.3-.1-.5-.2-.8-.3-.1 0-.1-.1-.2-.1-.2-.1-.4-.2-.7-.3-4.6-1.6-10.4-3.7-15.3-6.2-5.4-2.7-11-5.7-14.6-10-.7-.9-1.5-1.8-2-3-.1-.2-.2-.5-.3-.8-1.2-3.6-5.3-13.4-7.7-21.7-.6-2.2-1.2-4-1.5-5.1-.1-.2-.1-.4-.2-.7v-.1c-.1-.3-.2-.7-.3-1-.2 0-.2-.2-.2-.4z" stroke="#0a3849" stroke-width=".278"/><path d="M57.1 27.1c0-.4.6-1.3 1.1-1.9l.1-.1.1-.2c3.6-5.3 9.7-8.7 14.4-10.6.2-.1.3-.1.5-.2 3.3-1.3 7.1-2.4 11.1-3.1.1 0 .3-.1.4-.1 3.7-.6 7.8-1 13.5-1.3 1.5-.1 3-.1 4.5-.1 9 0 17.5 1.3 24.6 3.7 6.6 2.2 11.6 5.2 15.3 9 1.4 1.4 2.4 2.8 3.1 4 .1.2.2.4.3.7.1.2.1.4.1.7-.1.5-.2 1-.4 1.5-.1.2-.1.4-.2.5-1.5 4.7-4 8.9-6 15.5-1.7 5.6-3.2 10.5-3.4 11.2l-.3.6c-.6 1.3-1.4 2.4-2 3.1-3.9 4.5-9.3 7.4-14.6 9.9-5.3 2.5-10.4 4.6-15.3 6.2-.3.1-.5.2-.8.3-.2.1-.3.1-.5.2-.4.1-.7.2-.9.3h-.1c-.2 0-.5 0-.7-.1-.3-.1-.5-.2-.8-.3-.1 0-.1-.1-.2-.1l-.6-.3c-4.5-1.6-10.4-3.7-15.3-6.2-5.4-2.7-10.9-5.7-14.5-9.9-.7-.9-1.5-1.8-2-3-.1-.2-.2-.5-.3-.8-1.2-3.6-5.3-13.4-7.7-21.7-.6-2.2-1.2-4-1.5-5.1-.1-.2-.1-.4-.2-.7v-.1c-.1-.3-.2-.7-.3-1-.4-.1-.5-.3-.5-.5z" stroke="#0a394b" stroke-width=".278"/><path d="M57.2 27.1c0-.4.6-1.3 1.1-1.9l.1-.1.1-.2c3.6-5.3 9.7-8.6 14.4-10.6.2-.1.3-.1.5-.2 3.3-1.3 7.1-2.4 11.1-3.1.1 0 .3 0 .4-.1 3.7-.6 7.7-1 13.5-1.3 1.5-.1 3-.1 4.5-.1 9 0 17.4 1.3 24.6 3.6 6.6 2.2 11.6 5.2 15.3 9 1.4 1.4 2.4 2.8 3.1 4 .1.2.2.5.3.7.1.2.1.4.1.7-.1.5-.2 1-.4 1.5-.1.2-.1.4-.2.5-1.5 4.7-4 8.9-6 15.5-1.7 5.6-3.2 10.4-3.4 11.2l-.3.6c-.6 1.3-1.4 2.3-2 3.1-3.9 4.5-9.3 7.4-14.6 9.9-5.2 2.5-10.4 4.6-15.3 6.2-.3.1-.5.2-.8.3-.2.1-.3.1-.5.2-.4.1-.7.2-.9.3h-.1c-.2 0-.4 0-.7-.1-.3-.1-.5-.2-.8-.3-.1 0-.1-.1-.2-.1l-.6-.3c-4.5-1.6-10.4-3.7-15.3-6.2-5.7-2.5-11.2-5.5-14.8-9.8-.7-.9-1.5-1.8-2-3-.1-.2-.2-.5-.3-.8-1.2-3.6-5.3-13.4-7.7-21.6-.6-2.2-1.2-3.9-1.5-5.1-.1-.2-.1-.4-.2-.7v-.1c-.1-.3-.2-.7-.3-1-.2-.2-.2-.4-.2-.6z" stroke="#093b4d" stroke-width=".278"/><path d="M57.3 27.1c0-.4.6-1.3 1-1.9l.1-.1.1-.2c3.6-5.3 9.7-8.6 14.3-10.5.2-.1.3-.1.5-.2 3.3-1.3 7.1-2.4 11.1-3.1.1 0 .3 0 .4-.1 3.7-.6 7.7-1 13.4-1.3 1.5-.1 3-.1 4.5-.1 8.9 0 17.4 1.3 24.5 3.6 6.6 2.2 11.6 5.2 15.3 9 1.4 1.4 2.4 2.8 3.1 4 .1.2.2.5.3.7.1.2.1.4.1.7-.1.5-.2 1-.4 1.5-.1.2-.1.4-.2.5-1.5 4.6-4 8.9-6 15.4-1.7 5.6-3.2 10.4-3.4 11.2l-.3.6c-.6 1.3-1.4 2.3-2 3.1-3.9 4.5-9.3 7.4-14.6 9.9-5.2 2.5-10.4 4.6-15.3 6.2-.3.1-.5.2-.8.3-.2.1-.3.1-.5.2-.4.1-.7.2-.9.3h-.1c-.2 0-.4 0-.7-.1-.3-.1-.5-.2-.8-.3-.1 0-.1-.1-.2-.1-.2-.1-.4-.2-.6-.2-4.5-1.6-10.4-3.7-15.3-6.2-5.4-2.7-10.9-5.7-14.5-9.9-.7-.9-1.5-1.8-2-3-.1-.2-.2-.5-.3-.8-1.2-3.6-5.3-13.4-7.7-21.6-.6-2.1-1.2-3.9-1.5-5.1-.1-.2-.1-.4-.2-.7v-.1c-.1-.3-.2-.7-.3-1-.1-.2-.2-.4-.1-.6z" stroke="#093c50" stroke-width=".278"/><path d="M57.3 27.1c.1-.4.6-1.3 1-1.9l.1-.1.1-.2c3.6-5.3 9.7-8.6 14.3-10.5.2-.1.3-.1.5-.2 3.3-1.3 7-2.4 11.1-3.1.1 0 .3 0 .4-.1 3.7-.6 7.7-1 13.4-1.3 1.5-.1 3-.1 4.5-.1 8.9 0 17.4 1.3 24.5 3.6 6.6 2.2 11.6 5.1 15.3 9 1.4 1.4 2.4 2.7 3 4 .1.2.2.5.3.7.1.2.1.4.1.7-.1.5-.2 1-.4 1.5-.1.2-.1.4-.2.5-1.5 4.6-4 8.9-5.9 15.4-1.7 5.5-3.2 10.4-3.4 11.2-.1.2-.2.4-.2.6-.6 1.3-1.4 2.3-2 3.1-3.8 4.5-9.3 7.4-14.6 9.9-5.2 2.5-10.3 4.5-15.2 6.2-.3.1-.5.2-.8.3-.2.1-.3.1-.5.2-.3.1-.7.2-.9.3h-.1c-.2 0-.4 0-.7-.1-.3-.1-.5-.2-.8-.3-.1 0-.1-.1-.2-.1-.2-.1-.4-.2-.6-.2-4.5-1.6-10.4-3.7-15.3-6.2-5.5-2.7-11.1-5.7-14.7-9.9-.7-.9-1.4-1.8-2-3-.1-.2-.2-.5-.3-.8-1.2-3.6-5.3-13.4-7.7-21.6-.6-2.1-1.2-3.9-1.5-5.1-.1-.2-.1-.4-.2-.7v-.1c-.1-.3-.2-.7-.3-1-.1-.2-.1-.4-.1-.6z" stroke="#093e52" stroke-width=".278"/><path d="M57.4 27.1c.1-.4.6-1.3 1-1.9l.1-.1.1-.1c3.6-5.3 9.7-8.6 14.3-10.5.2-.1.3-.1.5-.2 3.3-1.3 7-2.4 11.1-3.1.1 0 .3 0 .4-.1 3.7-.6 7.7-1 13.4-1.3 1.5-.1 3-.1 4.5-.1 8.9 0 17.4 1.3 24.5 3.6 6.6 2.2 11.6 5.1 15.2 9 1.4 1.4 2.4 2.7 3 3.9.1.2.2.5.3.7.1.2.1.4 0 .7-.1.5-.2 1-.4 1.5-.1.2-.1.4-.2.5-1.5 4.6-3.9 8.8-5.9 15.3-1.7 5.5-3.2 10.3-3.4 11.1-.1.2-.2.4-.2.6-.6 1.3-1.4 2.3-2 3.1-3.8 4.5-9.3 7.4-14.6 9.9-5.2 2.5-10.3 4.5-15.2 6.2-.3.1-.5.2-.8.3-.2.1-.3.1-.5.2-.3.1-.7.2-.9.3h-.1c-.2 0-.4 0-.7-.1-.3-.1-.5-.2-.8-.3-.1 0-.1-.1-.2-.1-.2-.1-.4-.2-.6-.2-4.5-1.6-10.4-3.7-15.3-6.2-5.4-2.7-10.9-5.7-14.5-9.9-.7-.9-1.4-1.8-2-3-.1-.2-.2-.5-.3-.8-1.2-3.6-5.3-13.4-7.7-21.6-.6-2.1-1.2-3.9-1.5-5.1-.1-.2-.1-.4-.2-.7v-.1c-.1-.3-.2-.7-.3-1-.1 0-.1-.2-.1-.4z" stroke="#094054" stroke-width=".278"/><path d="M57.4 27.2c.1-.4.6-1.3 1-1.8l.1-.1.1-.1c3.6-5.3 9.7-8.6 14.3-10.5.2-.1.3-.1.5-.2 3.3-1.3 7-2.4 11-3.1.1 0 .3 0 .4-.1 3.7-.6 7.7-1 13.4-1.3 1.5-.1 3-.1 4.5-.1 8.9 0 17.4 1.3 24.5 3.6 6.6 2.2 11.5 5.1 15.2 8.9 1.4 1.4 2.4 2.7 3 3.9.1.2.2.5.3.7.1.2.1.4 0 .7-.1.5-.2 1-.4 1.5-.1.2-.1.4-.2.5-1.5 4.6-3.9 8.8-5.9 15.3-1.7 5.5-3.1 10.3-3.4 11.1-.1.2-.2.4-.2.6-.5 1.3-1.3 2.3-2 3.1-3.8 4.4-9.3 7.4-14.5 9.9-5.2 2.5-10.3 4.5-15.2 6.2-.3.1-.5.2-.8.3-.2.1-.3.1-.5.2-.3.1-.7.2-.9.3h-.1c-.2 0-.4 0-.7-.1-.3-.1-.5-.2-.8-.3-.1 0-.1-.1-.2-.1-.2-.1-.4-.2-.6-.2-4.5-1.6-10.4-3.7-15.3-6.2-5.4-2.7-10.9-5.7-14.5-9.9-.7-.9-1.4-1.8-2-3-.1-.2-.2-.5-.3-.8-1.2-3.6-5.2-13.3-7.6-21.5-.6-2.1-1.1-3.9-1.5-5.1-.1-.2-.1-.4-.2-.7v-.1c-.1-.3-.2-.7-.3-1-.1-.2-.2-.4-.2-.5z" stroke="#094156" stroke-width=".278"/><path d="M57.5 27.2c.1-.4.6-1.3 1-1.8l.1-.1.1-.1c3.6-5.3 9.7-8.6 14.3-10.5.2-.1.3-.1.5-.2 3.3-1.3 7-2.4 11-3.1.1 0 .3 0 .4-.1 3.7-.6 7.7-1 13.4-1.3 1.5-.1 3-.1 4.5-.1 8.9 0 17.4 1.3 24.5 3.6 6.6 2.2 11.5 5.1 15.2 8.9 1.4 1.4 2.4 2.7 3 3.9.1.2.2.5.2.7.1.2.1.4 0 .7-.1.5-.2 1-.4 1.5-.1.2-.1.4-.2.5-1.5 4.6-3.9 8.8-5.9 15.3-1.7 5.5-3.1 10.3-3.4 11.1-.1.2-.2.4-.2.6-.5 1.3-1.3 2.3-2 3.1-3.8 4.4-9.2 7.4-14.5 9.8-5.2 2.4-10.3 4.5-15.1 6.2-.3.1-.5.2-.8.3-.2.1-.3.1-.5.2-.3.1-.7.2-.9.3h-.1c-.2 0-.4 0-.7-.1-.3-.1-.5-.2-.8-.3-.1 0-.1-.1-.2-.1-.2-.1-.4-.2-.6-.2-4.5-1.6-10.4-3.7-15.3-6.2-5.4-2.7-11-5.7-14.5-9.8-.7-.9-1.4-1.8-2-3-.1-.2-.2-.5-.3-.8-1.2-3.6-5.3-13.4-7.7-21.5-.6-2.1-1.1-3.9-1.5-5-.1-.2-.1-.4-.2-.7v-.1c-.1-.3-.2-.7-.3-1-.1-.2-.1-.5-.1-.6z" stroke="#084358" stroke-width=".278"/><path d="M57.6 27.2c.1-.4.6-1.2 1-1.8l.1-.1.1-.1c3.6-5.3 9.7-8.6 14.3-10.5.2-.1.3-.1.5-.2 3.3-1.3 7-2.3 11-3.1.1 0 .3 0 .4-.1 3.7-.6 7.7-1 13.4-1.3 1.5-.1 3-.1 4.5-.1 8.9 0 17.4 1.3 24.4 3.6 6.6 2.2 11.5 5.1 15.2 8.9 1.4 1.4 2.4 2.7 3 3.9.1.2.2.5.2.7.1.2.1.4 0 .7-.1.5-.2 1-.4 1.5-.1.2-.1.4-.2.5-1.5 4.6-3.9 8.8-5.9 15.2-1.7 5.5-3.1 10.2-3.4 11.1-.1.2-.2.4-.2.6-.5 1.2-1.3 2.3-2 3.1-3.8 4.4-9.2 7.3-14.5 9.8-5.2 2.4-10.3 4.5-15.1 6.1-.3.1-.5.2-.8.3-.2.1-.3.1-.5.2-.3.1-.7.2-.9.3h-.1c-.2 0-.4 0-.7-.1-.3-.1-.5-.2-.8-.3-.1 0-.1-.1-.2-.1-.2-.1-.4-.2-.6-.2-4.5-1.6-10.4-3.7-15.3-6.2-5.4-2.5-10.9-5.5-14.5-9.7-.7-.9-1.4-1.8-2-3-.1-.2-.2-.5-.3-.8-1.2-3.6-5.3-13.4-7.7-21.5-.6-2.1-1.1-3.9-1.5-5-.1-.2-.1-.4-.2-.7v-.1c-.1-.3-.2-.7-.3-1 0-.1-.1-.3 0-.5z" stroke="#08445a" stroke-width=".278"/><path d="M57.6 27.2c.1-.4.6-1.2 1-1.8l.1-.1.1-.1c3.6-5.2 9.7-8.6 14.3-10.4.2-.1.3-.1.5-.2 3.3-1.3 7-2.3 11-3.1.1 0 .3 0 .4-.1 3.7-.6 7.7-1 13.3-1.3 1.5-.1 3-.1 4.5-.1 8.9 0 17.3 1.3 24.4 3.6 6.5 2.2 11.5 5.1 15.1 8.9 1.4 1.4 2.4 2.7 3 3.9.1.2.2.5.2.7.1.2.1.4 0 .7-.1.5-.2 1-.4 1.5-.1.2-.1.4-.2.5-1.5 4.6-3.9 8.8-5.9 15.2-1.7 5.4-3.1 10.2-3.4 11.1-.1.2-.2.5-.2.6-.5 1.2-1.3 2.3-2 3.1-3.8 4.4-9.2 7.3-14.5 9.8-5.2 2.4-10.2 4.5-15.1 6.1-.3.1-.5.2-.8.3-.2.1-.3.1-.5.2-.3.1-.7.2-.9.3h-.1c-.2 0-.4 0-.7-.1-.3-.1-.5-.2-.8-.3-.1 0-.1-.1-.2-.1-.2-.1-.4-.2-.6-.2-4.5-1.6-10.4-3.7-15.2-6.2-5.3-2.7-10.9-5.7-14.4-9.8-.7-.9-1.4-1.8-2-3-.1-.2-.2-.5-.3-.8-1.2-3.6-5.3-13.3-7.7-21.5-.6-2.1-1.1-3.9-1.5-5-.1-.2-.1-.4-.2-.7v-.1c-.1-.3-.2-.7-.3-1v-.5z" stroke="#08465c" stroke-width=".277"/><path d="M57.7 27.2c.1-.4.6-1.2 1-1.8l.1-.1.1-.1c3.6-5.2 9.7-8.5 14.2-10.4.2-.1.3-.1.5-.2 3.3-1.3 7-2.3 11-3.1.1 0 .3 0 .4-.1 3.7-.6 7.7-1 13.3-1.3 1.5-.1 3-.1 4.5-.1 8.9 0 17.3 1.3 24.4 3.6 6.5 2.2 11.5 5.1 15.1 8.9 1.3 1.4 2.4 2.7 3 3.9.1.2.2.5.2.7.1.2.1.4 0 .7-.1.5-.2 1-.4 1.5-.1.2-.1.4-.2.5-1.5 4.5-3.9 8.7-5.9 15.2-1.6 5.4-3.1 10.2-3.4 11.1-.1.2-.2.5-.2.6-.5 1.2-1.3 2.3-2 3-3.8 4.4-9.2 7.3-14.5 9.8-5.2 2.4-10.2 4.5-15 6.1-.3.1-.5.2-.8.3-.2.1-.3.1-.5.2-.3.1-.7.2-.9.3h-.1c-.2 0-.4 0-.7-.1-.3-.1-.5-.2-.8-.3-.1 0-.1-.1-.2-.1-.2-.1-.4-.2-.6-.2-4.5-1.6-10.3-3.7-15.2-6.1-5.3-2.7-10.8-5.6-14.4-9.8-.7-.9-1.4-1.8-1.9-3-.1-.2-.2-.5-.3-.8-1.3-3.6-5.3-13.3-7.7-21.5-.6-2.1-1.1-3.8-1.5-5-.1-.2-.1-.4-.2-.7v-.1c-.1-.3-.2-.7-.3-1-.1-.1-.1-.3-.1-.5z" stroke="#08475f" stroke-width=".277"/><path d="M57.7 27.2c.1-.4.6-1.2 1-1.7l.1-.1.1-.1c3.6-5.2 9.6-8.5 14.2-10.4.2-.1.3-.1.5-.2 3.3-1.3 7-2.3 11-3.1.1 0 .3 0 .4-.1 3.7-.6 7.7-1 13.3-1.3 1.5-.1 3-.1 4.5-.1 8.9 0 17.3 1.3 24.4 3.6 6.5 2.2 11.5 5.1 15.1 8.9 1.3 1.4 2.4 2.7 3 3.9.1.2.1.5.2.7.1.2 0 .4 0 .7-.1.5-.3 1-.4 1.5-.1.2-.1.4-.2.5-1.5 4.5-3.9 8.7-5.9 15.1-1.6 5.4-3.1 10.1-3.4 11-.1.2-.2.5-.2.6-.5 1.2-1.3 2.2-2 3-3.8 4.4-9.2 7.3-14.4 9.8-5.1 2.4-10.2 4.5-15 6.1-.3.1-.5.2-.8.3-.2.1-.3.1-.5.2-.3.1-.7.2-.9.3H101c-.3-.1-.5-.2-.8-.3-.1 0-.1-.1-.2-.1-.2-.1-.4-.2-.6-.2-4.6-1.6-10.4-3.7-15.3-6.2-5.3-2.7-10.8-5.6-14.4-9.8-.7-.9-1.4-1.8-1.9-3-.1-.2-.2-.5-.3-.8-1.3-3.7-5.3-13.3-7.7-21.5-.6-2.1-1.1-3.8-1.5-5-.1-.2-.1-.4-.2-.7v-.1c-.1-.3-.2-.7-.3-1 0 0-.1-.2-.1-.4z" stroke="#084961" stroke-width=".277"/><path d="M57.8 27.2c.1-.4.6-1.2 1-1.7l.1-.1.1-.1c3.6-5.2 9.6-8.5 14.2-10.4.2-.1.3-.1.5-.2 3.3-1.3 7-2.3 11-3 .1 0 .3 0 .4-.1 3.7-.6 7.7-1 13.3-1.3 1.5-.1 3-.1 4.5-.1 8.9 0 17.3 1.3 24.3 3.6 6.5 2.2 11.4 5.1 15.1 8.9 1.3 1.4 2.3 2.7 3 3.9.1.2.1.5.2.7.1.2 0 .4 0 .7-.1.5-.3 1-.4 1.5-.1.2-.1.4-.2.5-1.5 4.5-3.9 8.7-5.8 15.1-1.6 5.4-3.1 10.1-3.4 11-.1.2-.2.5-.2.6-.5 1.2-1.3 2.2-2 3-3.8 4.4-9.2 7.3-14.4 9.8-5.1 2.4-10.2 4.5-15 6.1-.3.1-.5.2-.8.3-.2.1-.3.1-.5.2-.3.1-.7.2-.9.3H101.1c-.3-.1-.5-.2-.8-.3-.1 0-.1-.1-.2-.1-.2-.1-.4-.2-.6-.2-4.7-1.8-10.5-3.9-15.4-6.3-5.3-2.7-10.8-5.6-14.3-9.8-.7-.9-1.4-1.8-1.9-3-.1-.2-.2-.5-.3-.8-1.3-3.7-5.2-13.3-7.6-21.4-.6-2.1-1.1-3.8-1.5-5-.1-.2-.1-.4-.2-.7v-.1c-.1-.3-.2-.7-.3-1-.2-.1-.2-.3-.2-.5z" stroke="#074b63" stroke-width=".277"/><path d="M57.8 27.2c.1-.4.6-1.2 1-1.7l.1-.1.1-.1c3.6-5.2 9.6-8.5 14.2-10.4.2-.1.3-.1.5-.2 3.3-1.3 7-2.3 11-3 .1 0 .3 0 .4-.1 3.7-.6 7.6-1 13.3-1.3 1.5-.1 3-.1 4.5-.1 8.9 0 17.3 1.2 24.3 3.6 6.5 2.2 11.4 5.1 15 8.8 1.3 1.4 2.3 2.7 3 3.9.1.2.1.5.2.7v.7c-.1.5-.3 1-.4 1.5-.1.2-.1.4-.2.5-1.5 4.5-3.9 8.7-5.8 15-1.6 5.3-3.1 10.1-3.4 11-.1.2-.2.5-.2.6-.5 1.2-1.3 2.2-2 3-3.8 4.4-9.2 7.3-14.4 9.8-5.1 2.4-10.1 4.5-15 6.1-.3.1-.5.2-.8.3-.2.1-.3.1-.5.2-.3.1-.7.2-.9.3H101c-.3-.1-.5-.2-.8-.3-.1 0-.1-.1-.2-.1-.2-.1-.4-.2-.6-.2-4.5-1.6-10.4-3.7-15.2-6.2-5.3-2.7-10.8-5.6-14.3-9.8-.7-.9-1.4-1.8-1.9-3-.1-.2-.2-.5-.3-.8-1.3-3.7-5.2-13.3-7.6-21.4-.6-2.1-1.1-3.8-1.5-5-.1-.2-.1-.4-.2-.7v-.1c-.1-.3-.2-.7-.3-1-.2 0-.2-.2-.3-.4z" stroke="#074c65" stroke-width=".277"/><path d="M57.9 27.2c.1-.4.6-1.2.9-1.7l.1-.1.1-.1c3.6-5.2 9.6-8.5 14.2-10.4.2-.1.3-.1.5-.2 3.3-1.3 7-2.3 10.9-3 .1 0 .3 0 .4-.1 3.7-.6 7.6-1 13.3-1.3 1.5-.1 3-.1 4.5-.1 8.9 0 17.3 1.2 24.3 3.6 6.5 2.2 11.4 5.1 15 8.8 1.3 1.4 2.3 2.7 3 3.9.1.2.1.5.2.7v.7c-.1.5-.3 1-.4 1.5-.1.2-.1.4-.2.5-1.5 4.5-3.9 8.7-5.8 15-1.6 5.3-3.1 10-3.4 11-.1.2-.2.5-.2.6-.5 1.2-1.3 2.2-2 3-3.8 4.4-9.1 7.3-14.4 9.7-5.1 2.4-10.1 4.5-14.9 6.1-.3.1-.5.2-.8.3-.2.1-.3.1-.5.2-.3.1-.7.2-.9.3H101c-.3-.1-.5-.2-.8-.3-.1 0-.1-.1-.2-.1-.2-.1-.4-.2-.6-.2-4.5-1.6-10.3-3.7-15.2-6.1-5.3-2.7-10.8-5.6-14.3-9.8-.7-.9-1.4-1.8-1.9-3-.1-.2-.2-.5-.3-.8-1.3-3.7-5.2-13.3-7.6-21.4-.6-2.1-1.1-3.8-1.5-4.9-.1-.2-.1-.4-.2-.7v-.1c-.1-.3-.2-.7-.3-1-.1-.1-.2-.3-.2-.5z" stroke="#074e67" stroke-width=".277"/><path d="M58 27.2c.1-.4.6-1.2.9-1.7l.1-.1.1-.1c3.6-5.2 9.6-8.5 14.2-10.3.2-.1.3-.1.5-.2 3.3-1.3 7-2.3 10.9-3 .1 0 .3 0 .4-.1 3.7-.6 7.6-1 13.2-1.3 1.5-.1 3-.1 4.5-.1 8.9 0 17.3 1.2 24.3 3.6 6.5 2.2 11.4 5.1 15 8.8 1.3 1.4 2.3 2.7 3 3.8.1.2.1.5.2.7v.7c-.1.5-.3 1-.4 1.5-.1.2-.1.4-.2.5-1.5 4.5-3.9 8.6-5.8 15-1.6 5.3-3 10-3.4 11-.1.2-.2.5-.2.6-.5 1.2-1.3 2.2-2 3-3.8 4.4-9.1 7.3-14.4 9.7-5.1 2.4-10.1 4.4-14.9 6.1-.3.1-.5.2-.8.3-.2.1-.3.1-.5.2-.3.1-.7.2-.9.3H101c-.2-.1-.5-.2-.8-.3-.1 0-.1-.1-.2-.1-.2-.1-.4-.2-.6-.2-4.5-1.6-10.3-3.7-15.2-6.1-5.3-2.7-10.8-5.6-14.3-9.7-.7-.9-1.4-1.8-1.9-3-.1-.2-.2-.5-.3-.8-1.3-3.7-5.2-13.3-7.6-21.4-.6-2-1.1-3.8-1.5-4.9-.1-.2-.1-.4-.2-.7v-.1c-.1-.3-.2-.6-.3-1-.1-.2-.1-.4-.1-.6z" stroke="#074f69" stroke-width=".277"/><path d="M58 27.2c.1-.4.6-1.2.9-1.6l.1-.1.1-.1c3.6-5.2 9.6-8.5 14.1-10.3.2-.1.3-.1.5-.2 3.3-1.3 7-2.3 10.9-3 .1 0 .3 0 .4-.1 3.7-.6 7.6-1 13.2-1.3 1.5-.1 3-.1 4.5-.1 8.9 0 17.2 1.2 24.3 3.6 6.5 2.2 11.4 5.1 15 8.8 1.3 1.4 2.3 2.7 3 3.8.1.2.1.5.1.7v.7c-.1.5-.3 1-.4 1.5-.1.2-.1.4-.2.5-1.5 4.5-3.9 8.6-5.8 14.9-1.6 5.3-3 10-3.4 11-.1.2-.2.5-.2.6-.5 1.2-1.2 2.2-2 3-3.8 4.4-9.1 7.3-14.3 9.7-5.1 2.4-10.1 4.4-14.9 6.1-.3.1-.5.2-.8.3-.2.1-.3.1-.5.2-.3.1-.7.2-.9.3H100.9c-.2-.1-.5-.2-.8-.3-.1 0-.1-.1-.2-.1-.2-.1-.4-.2-.6-.2-4.5-1.6-10.3-3.7-15.2-6.1-5.3-2.7-10.8-5.6-14.3-9.7-.8-.9-1.4-1.8-1.9-3-.1-.2-.2-.5-.3-.8-1.3-3.7-5.2-13.3-7.6-21.4-.6-2-1.1-3.8-1.5-4.9-.1-.2-.1-.4-.2-.7v-.1c-.1-.3-.2-.6-.3-1 .1-.2 0-.4 0-.6z" stroke="#07516b" stroke-width=".277"/><path d="M58.1 27.2c.1-.4.6-1.1.9-1.6l.1-.1.1-.1c3.6-5.2 9.6-8.5 14.1-10.3.2-.1.3-.1.5-.2 3.3-1.3 6.9-2.3 10.9-3 .1 0 .3 0 .4-.1 3.6-.6 7.6-1 13.2-1.3 1.5-.1 3-.1 4.5-.1 8.8 0 17.2 1.2 24.2 3.6 6.5 2.2 11.4 5 15 8.8 1.3 1.4 2.3 2.7 2.9 3.8.1.2.1.5.1.7v.7c-.1.5-.3 1-.4 1.5-.1.2-.1.3-.2.5-1.5 4.5-3.9 8.6-5.8 14.9-1.6 5.3-3 9.9-3.4 11-.1.2-.2.5-.2.6-.5 1.2-1.2 2.2-2 3-3.8 4.4-9.1 7.2-14.3 9.7-5.1 2.4-10.1 4.4-14.8 6-.3.1-.5.2-.8.3-.2.1-.3.1-.5.2l-.9.3H100.9c-.2-.1-.5-.2-.8-.3-.1 0-.1-.1-.2-.1-.2-.1-.4-.2-.6-.2-4.5-1.6-10.3-3.7-15.2-6.1-5.1-2.8-10.6-5.7-14.1-9.8-.8-.9-1.4-1.8-1.9-3-.1-.2-.2-.5-.3-.8-1.3-3.7-5.2-13.3-7.6-21.3-.6-2-1.1-3.7-1.4-4.9-.1-.2-.1-.4-.2-.7v-.1c-.1-.3-.2-.6-.3-1-.2-.1-.2-.3-.2-.5z" stroke="#06536d" stroke-width=".277"/><path d="M58.1 27.3c.1-.4.6-1.1.9-1.6l.1-.1.1-.1c3.6-5.2 9.6-8.4 14.1-10.3.2-.1.3-.1.5-.2 3.3-1.3 6.9-2.3 10.9-3 .1 0 .3 0 .4-.1 3.6-.6 7.6-1 13.2-1.3 1.5-.1 3-.1 4.5-.1 8.8 0 17.2 1.2 24.2 3.6 6.5 2.2 11.3 5 14.9 8.8 1.3 1.4 2.3 2.7 2.9 3.8.1.2.1.5.1.7v.7c-.1.5-.3 1-.4 1.4-.1.2-.1.3-.2.5-1.5 4.4-3.8 8.6-5.8 14.9-1.6 5.2-3 9.9-3.4 10.9-.1.2-.2.5-.2.6-.5 1.2-1.2 2.2-1.9 3-3.8 4.4-9.1 7.2-14.3 9.7-5.1 2.4-10 4.4-14.8 6-.3.1-.5.2-.8.3-.2.1-.3.1-.5.2l-.9.3H100.9c-.2-.1-.5-.2-.8-.3-.1 0-.1-.1-.2-.1-.2-.1-.4-.2-.6-.2-4.5-1.6-10.3-3.7-15.2-6.1-5.3-2.7-10.7-5.6-14.2-9.7-.8-.9-1.4-1.8-1.9-3-.1-.2-.2-.5-.3-.8-1.3-3.7-5.2-13.3-7.6-21.3-.6-2-1.1-3.7-1.4-4.9-.1-.2-.1-.4-.2-.7v-.1l-.3-.9c0-.2 0-.4-.1-.5z" stroke="#065470" stroke-width=".277"/><path d="M58.2 27.3c.1-.4.6-1.1.9-1.6l.1-.1.1-.1c3.6-5.2 9.6-8.4 14.1-10.3.2-.1.3-.1.5-.2 3.3-1.3 6.9-2.3 10.9-3 .1 0 .3 0 .4-.1 3.6-.6 7.6-1 13.2-1.3 1.5-.1 3-.1 4.5-.1 8.8 0 17.2 1.2 24.2 3.6 6.5 2.2 11.3 5 14.9 8.8 1.3 1.4 2.3 2.7 2.9 3.8.1.2.1.5.1.7v.7c-.1.5-.3 1-.4 1.4-.1.2-.1.3-.2.5-1.5 4.4-3.8 8.6-5.7 14.8-1.6 5.2-3 9.9-3.4 10.9-.1.3-.2.5-.2.6-.5 1.2-1.2 2.2-1.9 3-3.7 4.3-9.1 7.2-14.3 9.7-5.1 2.4-10 4.4-14.8 6-.3.1-.5.2-.8.3-.2.1-.3.1-.5.2l-.9.3H101.1c-.2-.1-.5-.2-.8-.3-.1 0-.1-.1-.2-.1-.2-.1-.4-.2-.6-.2-4.5-1.6-10.3-3.7-15.2-6.1-5.3-2.7-10.7-5.6-14.2-9.7-.8-.9-1.4-1.8-1.9-3-.1-.2-.2-.5-.3-.8-1.3-3.7-5.2-13.3-7.6-21.3-.6-2-1.1-3.7-1.4-4.9-.1-.2-.1-.4-.2-.7v-.1l-.3-.9c-.1-.1-.2-.3-.2-.4z" stroke="#065672" stroke-width=".277"/><path d="M58.3 27.3c.1-.4.6-1.1.9-1.6l.1-.1.1-.1c3.5-5.2 9.6-8.4 14.1-10.3.2-.1.3-.1.5-.2 3.3-1.3 6.9-2.3 10.9-3 .1 0 .3 0 .4-.1 3.6-.6 7.6-1 13.2-1.3 1.5-.1 3-.1 4.5-.1 8.8 0 17.2 1.2 24.2 3.6 6.4 2.2 11.3 5 14.9 8.7 1.3 1.4 2.3 2.7 2.9 3.8 0 .2.1.5.1.7v.7c-.1.5-.3 1-.4 1.4-.1.2-.1.3-.2.5-1.5 4.4-3.8 8.5-5.7 14.8-1.6 5.2-3 9.8-3.3 10.9-.1.3-.2.5-.2.6-.5 1.2-1.2 2.1-1.9 3-3.7 4.3-9.1 7.2-14.3 9.7-5 2.4-10 4.4-14.7 6-.3.1-.5.2-.8.3-.2.1-.3.1-.5.2l-.9.3H101.4c-.2-.1-.5-.2-.8-.3-.1 0-.1-.1-.2-.1-.2-.1-.4-.2-.6-.2-4.8-1.5-10.6-3.6-15.5-6.1-5.3-2.7-10.7-5.6-14.2-9.7-.8-.9-1.4-1.8-1.9-3-.1-.2-.2-.5-.3-.8-1.3-3.7-5.2-13.3-7.6-21.3-.6-2-1.1-3.7-1.4-4.9-.1-.2-.1-.4-.2-.7v-.1l-.3-.9c-.1.1-.1-.2-.1-.3z" stroke="#065774" stroke-width=".277"/><path d="M58.3 27.3c.1-.4.6-1.1.9-1.5l.1-.1.1-.1c3.5-5.2 9.5-8.4 14.1-10.2.2-.1.3-.1.5-.2 3.3-1.3 6.9-2.3 10.9-3 .1 0 .3 0 .4-.1 3.6-.6 7.6-1 13.1-1.3 1.5-.1 3-.1 4.5-.1 8.8 0 17.2 1.2 24.2 3.6 6.4 2.2 11.3 5 14.9 8.7 1.3 1.4 2.3 2.7 2.9 3.8 0 .2.1.5.1.7v.7c-.1.5-.3 1-.4 1.4-.1.2-.1.3-.2.5-1.5 4.4-3.8 8.5-5.7 14.8-1.6 5.2-3 9.8-3.3 10.9-.1.3-.2.5-.2.6-.5 1.1-1.2 2.1-1.9 3-3.7 4.3-9.1 7.2-14.3 9.6-5 2.4-10 4.4-14.7 6-.3.1-.5.2-.8.3-.2.1-.3.1-.5.2l-.9.3H101.3c-.2-.1-.5-.2-.8-.3-.1 0-.1-.1-.2-.1-.2-.1-.4-.2-.6-.2-4.7-1.7-10.5-3.8-15.3-6.2-5.3-2.7-10.7-5.6-14.2-9.7-.8-.9-1.4-1.8-1.9-3-.1-.2-.2-.5-.3-.8-1.3-3.7-5.2-13.3-7.6-21.3-.6-2-1.1-3.7-1.4-4.8-.1-.2-.1-.4-.2-.7v-.1l-.3-.9c-.1 0-.2-.2-.2-.4z" stroke="#065976" stroke-width=".277"/><path d="M58.4 27.3c.1-.4.6-1.1.9-1.5l.1-.1.1-.1c3.5-5.1 9.5-8.4 14-10.2.2-.1.3-.1.5-.2 3.3-1.3 6.9-2.3 10.8-3 .1 0 .3 0 .4-.1 3.6-.6 7.6-1 13.1-1.3 1.5-.1 3-.1 4.5-.1 8.8 0 17.2 1.2 24.1 3.6 6.4 2.2 11.3 5 14.8 8.7 1.3 1.4 2.3 2.6 2.9 3.8 0 .2.1.5.1.7v.7c-.1.5-.3 1-.4 1.4-.1.2-.1.3-.2.5-1.5 4.4-3.8 8.5-5.7 14.7-1.6 5.1-3 9.8-3.3 10.9-.1.3-.2.5-.2.6-.5 1.1-1.2 2.1-1.9 3-3.7 4.3-9 7.2-14.2 9.6-5 2.4-10 4.4-14.7 6-.3.1-.5.2-.8.3-.2.1-.3.1-.4.2l-.9.3H101.2c-.2-.1-.5-.2-.8-.3-.1 0-.1-.1-.2-.1-.2-.1-.4-.2-.6-.2-4.5-1.6-10.3-3.7-15.1-6.1-5.3-2.6-10.7-5.6-14.2-9.6-.8-.9-1.4-1.8-1.9-3-.1-.2-.2-.5-.3-.8-1.3-3.7-5.2-13.2-7.6-21.2-.6-2-1.1-3.7-1.4-4.8-.1-.2-.1-.4-.2-.7v-.1l-.3-.9c-.2-.2-.2-.4-.2-.6z" stroke="#055b78" stroke-width=".277"/><path d="M58.4 27.3c.1-.4.6-1.1.9-1.5l.1-.1.1-.1c3.5-5.1 9.5-8.4 14-10.2.2-.1.3-.1.5-.2 3.3-1.3 6.9-2.3 10.8-3 .1 0 .3 0 .4-.1 3.6-.6 7.6-1 13.1-1.3 1.5-.1 3-.1 4.5-.1 8.8 0 17.1 1.2 24.1 3.6 6.4 2.2 11.3 5 14.8 8.7 1.3 1.4 2.3 2.6 2.9 3.8 0 .2.1.5.1.7 0 .2 0 .4-.1.7-.1.5-.3 1-.4 1.4-.1.2-.1.3-.2.5-1.5 4.4-3.8 8.5-5.7 14.7-1.6 5.1-3 9.7-3.3 10.9-.1.3-.2.5-.2.6-.5 1.1-1.2 2.1-1.9 3-3.7 4.3-9 7.2-14.2 9.6-5 2.4-9.9 4.4-14.6 6-.3.1-.5.2-.8.3-.1.1-.3.1-.4.2l-.9.3H101.2c-.2-.1-.5-.2-.8-.3-.1 0-.1-.1-.2-.1-.2-.1-.4-.2-.6-.2-4.5-1.6-10.3-3.7-15.1-6.1-5.3-2.6-10.7-5.6-14.1-9.6-.8-.9-1.4-1.8-1.9-3-.1-.2-.2-.5-.3-.8-1.3-3.7-5.2-13.2-7.6-21.2-.6-2-1.1-3.7-1.4-4.8-.1-.2-.1-.4-.2-.6v-.1l-.3-.9c-.2-.3-.2-.5-.3-.7z" stroke="#055c7a" stroke-width=".277"/><path d="M58.5 27.3c.1-.4.6-1.1.9-1.5l.1-.1.1-.1c3.5-5.1 9.5-8.4 14-10.2.2-.1.3-.1.5-.2 3.2-1.3 6.9-2.3 10.8-3 .1 0 .3 0 .4-.1 3.6-.6 7.5-1 13.1-1.3 1.5-.1 3-.1 4.5-.1 8.8 0 17.1 1.2 24.1 3.6 6.4 2.2 11.2 5 14.8 8.7 1.3 1.4 2.3 2.6 2.9 3.8 0 .2 0 .5.1.7 0 .2 0 .4-.1.7-.1.5-.3 1-.4 1.4-.1.2-.1.3-.2.5-1.5 4.4-3.8 8.5-5.7 14.6-1.6 5.1-3 9.7-3.3 10.8-.1.3-.2.5-.2.6-.5 1.1-1.2 2.1-1.9 3-3.7 4.3-9 7.2-14.2 9.6-5 2.4-9.9 4.4-14.6 6-.3.1-.5.2-.8.3-.1.1-.3.1-.4.2l-.9.3h-.1c-.2 0-.4.1-.7 0-.2-.1-.5-.2-.8-.3-.1 0-.1-.1-.2-.1-.2-.1-.4-.2-.6-.2-4.5-1.6-10.3-3.7-15.1-6.1-5.3-2.6-10.7-5.6-14.1-9.6-.8-.9-1.4-1.8-1.9-3-.1-.2-.2-.5-.3-.8-1.3-3.8-5.2-13.2-7.6-21.2-.6-2-1.1-3.7-1.4-4.8-.1-.2-.1-.4-.2-.6v-.1l-.3-.9c-.2-.1-.3-.3-.3-.5z" stroke="#055e7c" stroke-width=".277"/><path d="M58.6 27.3c.1-.4.6-1 .9-1.5l.1-.1.1-.1c3.5-5.1 9.5-8.4 14-10.2.2-.1.3-.1.5-.2 3.2-1.3 6.9-2.3 10.8-3 .1 0 .3 0 .4-.1 3.6-.6 7.5-1 13.1-1.3 1.5-.1 3-.1 4.5-.1 8.8 0 17.1 1.2 24.1 3.6 6.4 2.1 11.2 5 14.8 8.7 1.3 1.4 2.3 2.6 2.9 3.8v.7c0 .2 0 .4-.1.7-.1.5-.3.9-.4 1.4-.1.2-.1.3-.2.5-1.5 4.3-3.8 8.4-5.7 14.6-1.5 5.1-2.9 9.7-3.3 10.8-.1.3-.2.5-.2.6-.5 1.1-1.1 2.1-1.9 3-3.7 4.3-9 7.1-14.2 9.6-5 2.4-9.9 4.4-14.6 6-.3.1-.5.2-.8.3-.1.1-.3.1-.4.2l-.9.3h-.1c-.2 0-.4.1-.6.1-.2-.1-.5-.2-.8-.3-.1 0-.1-.1-.2-.1-.2-.1-.4-.2-.6-.2-4.5-1.6-10.3-3.7-15.1-6.1-5.3-2.6-10.7-5.6-14.1-9.6-.8-.9-1.4-1.8-1.9-3-.1-.2-.2-.5-.3-.8-1.3-3.8-5.2-13.2-7.6-21.2-.6-2-1.1-3.6-1.4-4.8-.1-.2-.1-.4-.2-.6v-.1l-.3-.9c-.3-.2-.3-.4-.3-.6z" stroke="#055f7f" stroke-width=".277"/><path d="M58.6 27.3c.1-.4.6-1 .8-1.4l.1-.1.1-.1c3.5-5.1 9.5-8.3 14-10.2.2-.1.3-.1.5-.2 3.2-1.3 6.9-2.3 10.8-3 .1 0 .3 0 .4-.1 3.6-.6 7.5-1 13.1-1.3 1.5-.1 3-.1 4.5-.1 8.8 0 17.1 1.2 24.1 3.6 6.4 2.1 11.2 5 14.7 8.7 1.3 1.4 2.3 2.6 2.9 3.7v.7c0 .2 0 .4-.1.7-.1.5-.3.9-.4 1.4-.1.2-.1.3-.2.5-1.5 4.3-3.8 8.4-5.7 14.6-1.5 5-2.9 9.6-3.3 10.8-.1.3-.2.5-.2.6-.4 1.1-1.1 2.1-1.9 3-3.7 4.3-9 7.1-14.2 9.6-5 2.3-9.9 4.3-14.5 5.9-.3.1-.5.2-.8.3-.1.1-.3.1-.4.2l-.9.3h-.1c-.2 0-.4.1-.6.1-.2-.1-.5-.2-.8-.3-.1 0-.1-.1-.2-.1-.2-.1-.4-.2-.6-.2-4.5-1.6-10.3-3.7-15.1-6.1-5.2-2.6-10.7-5.5-14.1-9.6-.8-.9-1.4-1.8-1.9-3-.1-.2-.2-.5-.3-.8-1.3-3.8-5.2-13.2-7.5-21.2-.6-2-1.1-3.6-1.4-4.8-.1-.2-.1-.4-.2-.6v-.1l-.3-.9c-.2-.1-.3-.3-.3-.5z" stroke="#056181" stroke-width=".277"/><path d="M58.7 27.3c.1-.4.6-1 .8-1.4l.1-.1.1-.1c3.5-5.1 9.5-8.3 14-10.1.2-.1.3-.1.5-.2 3.2-1.3 6.9-2.3 10.8-3 .1 0 .3 0 .4-.1 3.6-.6 7.5-1 13-1.3 1.5-.1 3-.1 4.5-.1 8.8 0 17.1 1.2 24 3.6 6.4 2.1 11.2 5 14.7 8.6 1.3 1.4 2.3 2.6 2.9 3.7v.7c0 .2 0 .4-.1.7-.1.5-.3.9-.4 1.4-.1.2-.1.3-.2.5-1.5 4.3-3.8 8.4-5.6 14.5-1.5 5-2.9 9.6-3.3 10.8-.1.3-.2.5-.2.6-.4 1.1-1.1 2.1-1.9 3-3.7 4.3-9 7.1-14.1 9.6-5 2.3-9.8 4.3-14.5 5.9-.3.1-.5.2-.8.3-.1.1-.3.1-.4.2l-.9.3h-.1c-.2 0-.4.1-.6.1-.2-.1-.5-.2-.8-.3-.1 0-.1-.1-.2-.1-.2-.1-.4-.2-.6-.2-4.5-1.6-10.3-3.7-15.1-6.1-5.2-2.6-10.6-5.5-14.1-9.6-.8-.9-1.4-1.8-1.9-3-.1-.2-.2-.5-.3-.8-1.3-3.8-5.2-13.2-7.5-21.2-.6-2-1.1-3.6-1.4-4.8-.1-.2-.1-.4-.2-.6v-.1l-.3-.9c-.2 0-.3-.2-.3-.4z" stroke="#056283" stroke-width=".277"/><path d="M58.7 27.3c.1-.4.6-1 .8-1.4l.1-.1.1-.1c3.5-5.1 9.5-8.3 14-10.1.2-.1.3-.1.5-.2 3.2-1.3 6.9-2.3 10.8-3 .1 0 .3 0 .4-.1 3.6-.6 7.5-1 13-1.3 1.5-.1 3-.1 4.5-.1 8.8 0 17.1 1.2 24 3.6 6.4 2.1 11.2 5 14.7 8.6 1.3 1.4 2.3 2.6 2.9 3.7v.7c0 .2 0 .4-.1.7-.1.5-.3.9-.4 1.4-.1.2-.1.3-.2.5-1.5 4.3-3.8 8.4-5.6 14.5-1.5 5-2.9 9.6-3.3 10.8-.1.3-.2.5-.2.6-.4 1.1-1.1 2-1.9 3-3.7 4.3-9 7.1-14.1 9.5-5 2.3-9.8 4.3-14.5 5.9-.3.1-.5.2-.8.3-.1.1-.3.1-.4.2l-.9.3h-.1c-.2 0-.4.1-.6.1-.2-.1-.5-.2-.8-.3-.1 0-.1-.1-.2-.1-.2-.1-.4-.2-.6-.2-4.5-1.6-10.3-3.7-15.1-6.1-5.2-2.6-10.6-5.5-14-9.6-.8-.9-1.4-1.8-1.9-3-.1-.2-.2-.5-.3-.8-1.3-3.8-5.2-13.2-7.5-21.1-.6-1.9-1.1-3.6-1.4-4.7-.1-.2-.1-.4-.2-.6v-.1l-.3-.9c-.3-.1-.3-.3-.4-.5z" stroke="#046485" stroke-width=".276"/><path d="M58.8 27.3c.1-.4.6-1 .8-1.4l.1-.1.1-.1c3.5-5.1 9.5-8.3 13.9-10.1.2-.1.3-.1.5-.2 3.2-1.3 6.8-2.3 10.8-3 .1 0 .3 0 .4-.1 3.6-.6 7.5-1 13-1.3 1.5-.1 3-.1 4.5-.1 8.8 0 17.1 1.2 24 3.6 6.4 2.1 11.2 5 14.7 8.6 1.3 1.3 2.3 2.6 2.9 3.7v.7c0 .2 0 .4-.1.6-.1.5-.3.9-.4 1.4-.1.2-.1.3-.2.5-1.5 4.3-3.8 8.4-5.6 14.5-1.5 5-2.9 9.5-3.3 10.8-.1.3-.2.5-.2.6-.4 1.1-1.1 2-1.9 3-3.7 4.3-8.9 7.1-14.1 9.5-4.9 2.3-9.8 4.3-14.5 5.9-.3.1-.5.2-.8.3-.1.1-.3.1-.4.2l-.9.3h-.1c-.2 0-.4.1-.6.1-.2-.1-.5-.2-.8-.3-.1 0-.1-.1-.2-.1-.2-.1-.4-.2-.6-.2-4.5-1.6-10.2-3.7-15.1-6.1-5.2-2.6-10.6-5.5-14-9.5-.8-.9-1.4-1.8-1.9-3-.1-.2-.2-.5-.3-.8-1.3-3.8-5.2-13.2-7.5-21.1-.6-1.9-1.1-3.6-1.4-4.7-.1-.2-.1-.4-.2-.6v-.1l-.3-.9c-.2-.1-.3-.3-.3-.5z" stroke="#046687" stroke-width=".276"/><path d="M58.9 27.4c.1-.4.6-1 .8-1.4l.1-.1.1-.1c3.5-5.1 9.5-8.3 13.9-10.1.2-.1.3-.1.5-.2 3.2-1.3 6.8-2.3 10.8-3 .1 0 .3 0 .4-.1 3.6-.6 7.5-1 13-1.3 1.5-.1 3-.1 4.5-.1 8.8 0 17 1.2 24 3.6 6.4 2.1 11.1 4.9 14.7 8.6 1.3 1.3 2.3 2.6 2.9 3.7v.7c0 .2 0 .4-.1.6-.1.5-.3.9-.4 1.4-.1.2-.1.3-.2.5-1.5 4.3-3.8 8.4-5.6 14.4-1.5 5-2.9 9.5-3.3 10.7-.1.3-.2.5-.2.6-.4 1.1-1.1 2-1.9 3-3.7 4.3-8.9 7.1-14.1 9.5-4.9 2.3-9.8 4.3-14.4 5.9-.3.1-.5.2-.8.3-.1.1-.3.1-.4.2l-.9.3h-.1c-.2 0-.4.1-.6.1-.2-.1-.5-.2-.8-.3-.1 0-.1-.1-.2-.1-.2-.1-.4-.2-.6-.2-4.5-1.6-10.2-3.7-15.1-6.1C79.4 65.9 74 63 70.6 59c-.8-.9-1.4-1.8-1.9-3-.1-.2-.2-.5-.3-.8-1.3-3.8-5.2-13.2-7.5-21.1-.6-1.9-1.1-3.6-1.4-4.7-.1-.2-.1-.4-.2-.6v-.1l-.3-.9c-.1-.1-.1-.3-.1-.4z" stroke="#046789" stroke-width=".276"/><path d="M58.9 27.4c.1-.4.5-1 .8-1.3l.1-.1.1-.1c3.5-5.1 9.4-8.3 13.9-10.1.2-.1.3-.1.5-.2 3.2-1.3 6.8-2.3 10.7-2.9.1 0 .3 0 .4-.1 3.6-.6 7.5-1 13-1.2 1.5-.1 3-.1 4.5-.1 8.8 0 17 1.2 24 3.6 6.3 2.1 11.1 4.9 14.6 8.6 1.3 1.3 2.3 2.6 2.8 3.7v.7c0 .2 0 .4-.1.6-.1.5-.3.9-.4 1.4-.1.2-.1.3-.2.5-1.5 4.3-3.7 8.3-5.6 14.4-1.5 4.9-2.9 9.4-3.3 10.7-.1.3-.2.5-.2.6-.4 1.1-1.1 2-1.9 3-3.7 4.2-8.9 7.1-14.1 9.5-4.9 2.3-9.8 4.3-14.4 5.9-.3.1-.5.2-.8.3-.1.1-.3.1-.4.2l-.9.3h-.1c-.2 0-.4.1-.6.1-.2-.1-.5-.2-.8-.3-.1 0-.1-.1-.2-.1-.2-.1-.4-.2-.6-.2-4.5-1.6-10.2-3.7-15.1-6.1-5.2-2.8-10.6-5.7-14-9.7-.8-.9-1.4-1.8-1.9-2.9-.1-.2-.2-.5-.3-.7-1.3-3.8-5.2-13.2-7.5-21.1-.6-1.9-1-3.6-1.4-4.7-.1-.2-.1-.4-.2-.6v-.1L59 28c0-.3-.1-.5-.1-.6z" stroke="#04698b" stroke-width=".276"/><path d="M59 27.4c.1-.4.5-1 .8-1.3l.1-.1.1-.1c3.5-5.1 9.4-8.3 13.9-10.1.2-.1.3-.1.5-.2 3.2-1.3 6.8-2.3 10.7-2.9.1 0 .3 0 .4-.1 3.6-.6 7.5-1 13-1.2 1.5-.1 3-.1 4.4-.1 8.7 0 17 1.2 23.9 3.5 6.3 2.1 11.1 4.9 14.6 8.6 1.3 1.3 2.3 2.6 2.8 3.7v.7c0 .2-.1.4-.1.6-.1.5-.3.9-.4 1.4-.1.2-.1.3-.2.5-1.5 4.3-3.7 8.3-5.6 14.4-1.5 4.9-2.9 9.4-3.3 10.7-.1.3-.2.5-.2.6-.4 1.1-1.1 2-1.9 3-3.7 4.2-8.9 7.1-14 9.5-4.9 2.3-9.7 4.3-14.4 5.9-.3.1-.5.2-.8.3-.1.1-.3.1-.4.2l-.9.3h-.1c-.2 0-.4.1-.6.1-.2-.1-.5-.2-.8-.3-.1 0-.1-.1-.2-.1-.2-.1-.4-.2-.6-.2-4.5-1.6-10.2-3.7-15-6.1-5.2-2.6-10.6-5.5-14-9.5-.8-.9-1.4-1.8-1.9-2.9-.1-.2-.2-.5-.3-.7-1.3-3.8-5.2-13.2-7.5-21.1-.6-1.9-1-3.5-1.4-4.7-.1-.2-.1-.4-.2-.6V29l-.3-.9c0-.4-.1-.6-.1-.7z" stroke="#046a8e" stroke-width=".276"/><path d="M59 27.4c.1-.4.5-.9.8-1.3l.1-.1.1-.1c3.5-5.1 9.4-8.3 13.9-10 .2-.1.3-.1.4-.2 3.2-1.3 6.8-2.2 10.7-2.9.1 0 .3 0 .4-.1 3.6-.6 7.5-1 13-1.2 1.5-.1 3-.1 4.4-.1 8.7 0 17 1.2 23.9 3.5 6.3 2.1 11.1 4.9 14.6 8.6 1.3 1.3 2.2 2.6 2.8 3.7v.7c0 .2-.1.4-.1.6-.1.5-.3.9-.4 1.4-.1.2-.1.3-.2.5-1.5 4.2-3.7 8.3-5.6 14.3-1.5 4.9-2.9 9.4-3.3 10.7-.1.3-.2.5-.2.6-.4 1-1.1 2-1.9 2.9-3.6 4.2-8.9 7.1-14 9.5-4.9 2.3-9.7 4.3-14.3 5.9-.3.1-.5.2-.8.3-.1.1-.3.1-.4.2l-.9.3h-.1c-.2 0-.4.1-.6.1-.2-.1-.5-.2-.8-.3-.1 0-.1-.1-.2-.1-.2-.1-.4-.2-.6-.2-4.5-1.6-10.2-3.7-15-6.1-5.2-2.6-10.6-5.5-14-9.5-.8-.9-1.4-1.8-1.9-2.9-.1-.2-.2-.5-.3-.7-1.4-3.8-5.2-13.2-7.5-21-.6-1.9-1-3.5-1.4-4.7-.1-.2-.1-.4-.2-.6V29l-.3-.9c0-.3 0-.5-.1-.7z" stroke="#036c90" stroke-width=".276"/><path d="M59.1 27.4c.1-.4.5-.9.8-1.3l.1-.1.1-.1c3.5-5.1 9.4-8.2 13.9-10 .1-.1.3-.1.4-.2 3.2-1.3 6.8-2.2 10.7-2.9.1 0 .3 0 .4-.1 3.6-.6 7.5-1 12.9-1.2 1.5-.1 3-.1 4.4-.1 8.7 0 17 1.2 23.9 3.5 6.3 2.1 11.1 4.9 14.6 8.5 1.3 1.3 2.2 2.6 2.8 3.7 0 .2 0 .5-.1.7 0 .2-.1.4-.1.6-.1.5-.3.9-.4 1.4-.1.2-.1.3-.2.5-1.5 4.2-3.7 8.3-5.6 14.3-1.5 4.9-2.8 9.3-3.3 10.7-.1.3-.2.5-.2.6-.4 1-1 2-1.9 2.9-3.6 4.2-8.9 7-14 9.5-4.9 2.3-9.7 4.3-14.3 5.9-.3.1-.5.2-.8.3-.1.1-.3.1-.4.2l-.9.3h-.1c-.2 0-.4.1-.6.1-.2-.1-.5-.2-.8-.3-.1 0-.1-.1-.2-.1-.2-.1-.4-.2-.6-.2-4.5-1.6-10.2-3.6-15-6.1-5.2-2.6-10.6-5.5-13.9-9.5-.8-.9-1.4-1.8-1.9-2.9-.1-.2-.2-.5-.3-.7-1.4-3.8-5.2-13.2-7.5-21-.6-1.9-1-3.5-1.4-4.7-.1-.2-.1-.4-.2-.6v-.1l-.3-.9c.1-.2 0-.4 0-.6z" stroke="#036e92" stroke-width=".276"/><path d="M59.2 27.4c.1-.4.5-.9.8-1.3l.1-.1.1-.1c3.5-5 9.4-8.2 13.8-10 .1-.1.3-.1.4-.2 3.2-1.3 6.8-2.2 10.7-2.9.1 0 .3 0 .4-.1 3.6-.6 7.4-1 12.9-1.2 1.5-.1 3-.1 4.4-.1 8.7 0 17 1.2 23.9 3.5 6.3 2.1 11.1 4.9 14.5 8.5 1.3 1.3 2.2 2.6 2.8 3.7 0 .2 0 .5-.1.7 0 .2-.1.4-.1.6-.1.4-.3.9-.4 1.4-.1.2-.1.3-.2.5-1.5 4.2-3.7 8.3-5.5 14.2-1.5 4.8-2.8 9.3-3.3 10.7-.1.3-.2.5-.2.6-.4 1-1 2-1.9 2.9-3.6 4.2-8.9 7-14 9.4-4.9 2.3-9.7 4.3-14.3 5.8-.3.1-.5.2-.8.3-.1.1-.3.1-.4.2l-.9.3h-.1c-.2.1-.4.1-.6.1-.2-.1-.5-.2-.7-.3-.1 0-.1-.1-.2-.1-.2-.1-.4-.2-.6-.2-4.5-1.6-10.2-3.6-15-6.1-5.2-2.6-10.5-5.5-13.9-9.5-.8-.9-1.4-1.8-1.9-2.9-.1-.2-.2-.5-.3-.7-1.4-3.8-5.2-13.1-7.5-21-.6-1.9-1-3.5-1.4-4.6-.1-.2-.1-.4-.2-.6v-.1l-.3-.9v-.4z" stroke="#036f94" stroke-width=".276"/><path d="M59.2 27.4c.2-.4.5-.9.8-1.2l.1-.1.1-.1c3.5-5 9.4-8.2 13.8-10 .1-.1.3-.1.4-.2 3.2-1.3 6.8-2.2 10.7-2.9.1 0 .3 0 .4-.1 3.6-.6 7.4-1 12.9-1.2 1.5-.1 3-.1 4.4-.1 8.7 0 17 1.2 23.9 3.5 6.3 2.1 11 4.9 14.5 8.5 1.3 1.3 2.2 2.6 2.8 3.6 0 .2-.1.5-.1.7 0 .2-.1.4-.1.6-.1.4-.3.9-.4 1.4-.1.2-.1.3-.2.5-1.5 4.2-3.7 8.2-5.5 14.2-1.5 4.8-2.8 9.3-3.3 10.6-.1.3-.2.5-.2.6-.4 1-1 2-1.9 2.9-3.6 4.2-8.9 7-14 9.4-4.9 2.3-9.7 4.3-14.2 5.8-.3.1-.5.2-.8.3-.1.1-.3.1-.4.2l-.9.3h-.1c-.2.1-.4.1-.6.1-.2-.1-.5-.2-.7-.3-.1 0-.1-.1-.2-.1-.2-.1-.4-.2-.6-.2-4.5-1.6-10.2-3.6-15-6.1-5.2-2.6-10.5-5.5-13.9-9.4-.8-.9-1.4-1.8-1.9-2.9-.1-.2-.2-.5-.3-.7-1.4-3.9-5.2-13.1-7.5-21-.6-1.9-1-3.5-1.4-4.6-.1-.2-.1-.4-.2-.6v-.1l-.3-.9s0-.2-.1-.4z" stroke="#037196" stroke-width=".276"/><path d="M59.3 27.4c.2-.4.5-.9.7-1.2l.1-.1.1-.1c3.5-5 9.4-8.2 13.8-10 .1-.1.3-.1.4-.2 3.2-1.3 6.8-2.2 10.7-2.9.1 0 .3 0 .4-.1 3.5-.6 7.4-1 12.9-1.2 1.5-.1 3-.1 4.4-.1 8.7 0 16.9 1.2 23.8 3.5 6.3 2.1 11 4.9 14.5 8.5 1.3 1.3 2.2 2.6 2.8 3.6 0 .2-.1.5-.1.7 0 .2-.1.4-.1.6-.1.4-.3.9-.4 1.4-.1.2-.1.3-.2.5-1.5 4.2-3.7 8.2-5.5 14.2-1.5 4.8-2.8 9.2-3.3 10.6-.1.3-.2.5-.2.6-.4 1-1 1.9-1.9 2.9-3.6 4.2-8.8 7-13.9 9.4-4.9 2.3-9.6 4.2-14.2 5.8-.3.1-.5.2-.8.3-.1.1-.3.1-.4.2l-.9.3h-.1c-.2.1-.4.1-.6.1-.2-.1-.5-.2-.7-.3-.1 0-.1-.1-.2-.1-.2-.1-.4-.2-.6-.2-4.5-1.6-10.2-3.6-15-6.1-5.2-2.6-10.5-5.5-13.9-9.4-.8-.9-1.4-1.8-1.8-2.9-.1-.2-.2-.5-.3-.7-1.4-3.9-5.2-13.1-7.5-21-.6-1.9-1-3.5-1.4-4.6-.1-.2-.1-.4-.2-.6v-.1l-.3-.9s-.1-.2-.1-.4z" stroke="#037298" stroke-width=".276"/><path d="M59.3 27.4c.2-.3.5-.9.7-1.2l.1-.1.1-.1c3.5-5 9.4-8.2 13.8-10 .1-.1.3-.1.4-.2 3.2-1.2 6.8-2.2 10.7-2.9.1 0 .3 0 .4-.1 3.5-.6 7.4-1 12.9-1.2 1.5-.1 3-.1 4.4-.1 8.7 0 16.9 1.2 23.8 3.5 6.3 2.1 11 4.9 14.5 8.5 1.3 1.3 2.2 2.6 2.8 3.6 0 .2-.1.5-.1.7 0 .2-.1.4-.1.6-.1.4-.3.9-.4 1.4-.1.2-.1.3-.2.5-1.5 4.2-3.7 8.2-5.5 14.1-1.5 4.8-2.8 9.2-3.3 10.6-.1.3-.2.5-.2.6-.4 1-1 1.9-1.9 2.9-3.6 4.2-8.8 7-13.9 9.4-4.8 2.3-9.6 4.2-14.2 5.8-.3.1-.5.2-.8.3-.1.1-.3.1-.4.2l-.9.3h-.1c-.2.1-.4.1-.6.1-.2-.1-.5-.2-.7-.3-.1 0-.1-.1-.2-.1-.2-.1-.4-.2-.6-.2-4.5-1.6-10.2-3.6-15-6.1-5.2-2.6-10.5-5.5-13.9-9.4-.8-.9-1.4-1.8-1.8-2.9-.1-.2-.2-.5-.3-.7-1.4-3.9-5.2-13.1-7.5-20.9-.6-1.9-1-3.5-1.4-4.6-.1-.2-.1-.4-.2-.6v-.1l-.3-.9s0-.2-.1-.4z" stroke="#02749a" stroke-width=".276"/><path d="M59.4 27.4c.2-.3.5-.9.7-1.2l.1-.1.1-.1c3.4-5 9.4-8.2 13.8-10 .1-.1.3-.1.4-.2 3.2-1.2 6.8-2.2 10.6-2.9.1 0 .3 0 .4-.1 3.5-.6 7.4-1 12.9-1.2 1.5-.1 3-.1 4.4-.1 8.7 0 16.9 1.2 23.8 3.5 6.3 2.1 11 4.9 14.4 8.5 1.3 1.3 2.2 2.6 2.8 3.6 0 .2-.1.5-.1.7 0 .2-.1.4-.1.6-.1.4-.3.9-.4 1.4-.1.2-.1.3-.2.5-1.5 4.2-3.7 8.2-5.5 14.1-1.4 4.8-2.8 9.2-3.2 10.6-.1.3-.2.5-.2.6-.4 1-1 1.9-1.8 2.9-3.6 4.2-8.8 7-13.9 9.4-4.8 2.3-9.6 4.2-14.1 5.8-.3.1-.5.2-.8.3-.1.1-.3.1-.4.2l-.9.3h-.1c-.2.1-.4.1-.6.2-.2-.1-.5-.2-.7-.3-.1 0-.1 0-.2-.1-.2-.1-.4-.2-.6-.2-4.5-1.6-10.2-3.6-15-6-5.2-2.6-10.5-5.5-13.8-9.4-.8-.9-1.4-1.8-1.8-2.9-.4-.3-.4-.5-.5-.8-1.4-3.9-5.2-13.1-7.5-20.9-.5-1.9-1-3.4-1.4-4.6-.1-.2-.1-.4-.2-.6v-.1l-.3-.9c0-.1-.1-.3-.1-.5z" stroke="#02769c" stroke-width=".276"/><path d="M59.5 27.4c.2-.3.5-.9.7-1.2l.1-.1.1-.1c3.4-5 9.4-8.2 13.8-9.9.1-.1.3-.1.4-.2 3.2-1.2 6.8-2.2 10.6-2.9.1 0 .3 0 .4-.1 3.5-.6 7.4-1 12.8-1.2 1.5-.1 3-.1 4.4-.1 8.7 0 16.9 1.2 23.8 3.5 6.3 2.1 11 4.9 14.4 8.5 1.3 1.3 2.2 2.5 2.8 3.6 0 .2-.1.5-.1.7 0 .2-.1.4-.1.6-.1.4-.3.9-.4 1.4-.1.2-.1.3-.2.5-1.5 4.1-3.7 8.2-5.5 14.1-1.4 4.7-2.8 9.1-3.2 10.6-.1.3-.2.5-.2.6-.4 1-1 1.9-1.8 2.9-3.6 4.2-8.8 7-13.9 9.4-4.8 2.3-9.6 4.2-14.1 5.8-.3.1-.5.2-.8.3-.1.1-.3.1-.4.2l-.9.3h-.1c-.2.1-.4.1-.6.2-.2-.1-.5-.2-.7-.3-.1 0-.1 0-.2-.1-.2-.1-.4-.2-.6-.2-4.5-1.6-10.2-3.6-15-6-5.2-2.6-10.5-5.5-13.8-9.4-.8-.9-1.4-1.8-1.8-2.9-.1-.2-.2-.5-.3-.7-1.4-3.9-5.2-13.1-7.5-20.9-.5-1.9-1-3.4-1.4-4.6-.1-.2-.1-.4-.2-.6V29l-.3-.9c-.1-.3-.2-.5-.2-.7z" stroke="#02779f" stroke-width=".276"/><path d="M59.5 27.4c.2-.3.5-.9.7-1.1l.1-.1.1-.1c3.4-5 9.4-8.2 13.7-9.9.1-.1.3-.1.4-.2 3.2-1.2 6.8-2.2 10.6-2.9.1 0 .3 0 .4-.1 3.5-.6 7.4-1 12.8-1.2 1.5-.1 3-.1 4.4-.1 8.7 0 16.9 1.2 23.8 3.5 6.3 2.1 11 4.9 14.4 8.4 1.3 1.3 2.2 2.5 2.8 3.6 0 .2-.1.5-.1.7 0 .2-.1.4-.2.6-.1.4-.3.9-.4 1.3-.1.2-.1.3-.2.5-1.5 4.1-3.7 8.1-5.5 14-1.4 4.7-2.8 9.1-3.2 10.6-.1.3-.2.5-.2.6-.4 1-1 1.9-1.8 2.9-3.6 4.2-8.8 7-13.9 9.4-4.8 2.3-9.5 4.2-14.1 5.8-.3.1-.5.2-.8.3-.1.1-.3.1-.4.2l-.9.3h-.1c-.2.1-.4.1-.6.2-.2-.1-.5-.2-.7-.3-.1 0-.1 0-.2-.1-.2-.1-.4-.2-.6-.2-4.5-1.5-10.2-3.6-15-6-5.2-2.6-10.5-5.5-13.8-9.4-.8-.9-1.4-1.8-1.8-2.9-.1-.2-.2-.5-.3-.7-1.4-3.9-5.1-13.1-7.4-20.9-.5-1.8-1-3.4-1.3-4.6-.1-.2-.1-.4-.2-.6v-.1l-.3-.9c-.1-.1-.1-.3-.2-.5z" stroke="#0279a1" stroke-width=".276"/><path d="M59.6 27.5c.2-.3.5-.8.7-1.1l.1-.1.1-.1c3.4-5 9.3-8.1 13.7-9.9.1-.1.3-.1.4-.2 3.2-1.2 6.7-2.2 10.6-2.9.1 0 .3 0 .4-.1 3.5-.6 7.4-1 12.8-1.2 1.5-.1 3-.1 4.4-.1 8.7 0 16.9 1.2 23.7 3.5 6.2 2.1 10.9 4.9 14.4 8.4 1.3 1.3 2.2 2.5 2.8 3.6 0 .2-.1.5-.1.7 0 .2-.1.4-.2.6-.1.4-.3.9-.4 1.3-.1.2-.1.3-.2.5-1.5 4.1-3.7 8.1-5.5 14-1.4 4.7-2.8 9.1-3.2 10.5-.1.3-.2.5-.2.6-.4 1-1 1.9-1.8 2.9-3.6 4.2-8.8 6.9-13.8 9.3-4.8 2.3-9.5 4.2-14 5.8-.3.1-.5.2-.8.3-.1.1-.3.1-.4.1l-.9.3h-.1c-.2.1-.4.1-.6.2-.2-.1-.5-.2-.7-.3-.1 0-.1 0-.2-.1-.2-.1-.4-.2-.6-.2-4.5-1.5-10.2-3.6-15-6-5.2-2.6-10.5-5.4-13.8-9.4-.8-.9-1.4-1.8-1.8-2.9-.1-.2-.2-.5-.3-.7-1.5-3.8-5.2-13-7.5-20.8-.5-1.8-1-3.4-1.3-4.5-.1-.2-.1-.4-.2-.6v-.1l-.3-.9c-.1-.1-.2-.3-.2-.4z" stroke="#027aa3" stroke-width=".276"/><path d="M59.6 27.5c.2-.3.5-.8.7-1.1l.1-.1.1-.1c3.4-5 9.3-8.1 13.7-9.9.1-.1.3-.1.4-.2 3.2-1.2 6.7-2.2 10.6-2.9.1 0 .3 0 .4-.1 3.5-.6 7.4-1 12.8-1.2 1.5-.1 3-.1 4.4-.1 8.7 0 16.9 1.2 23.7 3.5 6.2 2.1 10.9 4.8 14.4 8.4 1.3 1.3 2.2 2.5 2.8 3.6 0 .2-.1.5-.2.7 0 .2-.1.4-.2.6-.1.4-.3.9-.4 1.3-.1.2-.1.3-.2.5-1.5 4.1-3.7 8.1-5.4 13.9-1.4 4.7-2.8 9-3.2 10.5-.1.3-.2.5-.2.6-.4 1-.9 1.9-1.8 2.9-3.6 4.2-8.8 6.9-13.8 9.3-4.8 2.3-9.5 4.2-14 5.8-.3.1-.5.2-.8.3-.1.1-.3.1-.4.1-.3.1-.6.2-.8.3h-.1c-.2.1-.4.1-.6.2-.2-.1-.5-.2-.7-.3-.1 0-.1 0-.2-.1-.2-.1-.4-.2-.6-.2-4.5-1.5-10.2-3.6-14.9-6-5.1-2.6-10.5-5.4-13.8-9.3-.8-.9-1.4-1.8-1.8-2.9-.1-.2-.2-.5-.3-.7-1.6-3.8-5.4-13-7.7-20.8-.5-1.8-1-3.4-1.3-4.5-.1-.2-.1-.4-.2-.6v-.1l-.3-.9c-.1-.1-.1-.3-.2-.4z" stroke="#017ca5" stroke-width=".276"/><path d="M59.7 27.5c.2-.3.5-.8.7-1.1l.1-.1.1-.1c3.4-5 9.3-8.1 13.7-9.9.1-.1.3-.1.4-.2 3.2-1.2 6.7-2.2 10.6-2.9.1 0 .3 0 .4-.1 3.5-.6 7.4-1 12.8-1.2 1.5-.1 3-.1 4.4-.1 8.7 0 16.8 1.2 23.7 3.5 6.2 2.1 10.9 4.8 14.3 8.4 1.3 1.3 2.2 2.5 2.8 3.6 0 .2-.1.5-.2.7-.1.2-.1.4-.2.6-.1.4-.3.9-.4 1.3-.1.2-.1.3-.2.5-1.5 4.1-3.7 8.1-5.4 13.9-1.4 4.6-2.7 9-3.2 10.5-.1.3-.2.5-.2.6-.4 1-.9 1.9-1.8 2.9-3.6 4.1-8.7 6.9-13.8 9.3-4.8 2.3-9.5 4.2-14 5.7-.3.1-.5.2-.8.3-.1 0-.3.1-.4.1-.3.1-.6.2-.8.3h-.1c-.2.1-.4.1-.6.2-.2-.1-.5-.2-.7-.3-.1 0-.1 0-.2-.1-.2-.1-.4-.2-.6-.2-4.4-1.5-10.2-3.6-14.9-6-5.1-2.6-10.4-5.4-13.8-9.3-.8-.9-1.4-1.8-1.8-2.9-.1-.2-.2-.5-.3-.7-1.6-3.8-5.3-12.9-7.6-20.7-.5-1.8-1-3.4-1.3-4.5-.1-.2-.1-.4-.2-.6v-.1l-.3-.9c-.1-.1-.2-.3-.2-.4z" stroke="#017da7" stroke-width=".276"/><path d="M59.8 27.5c.2-.3.5-.8.7-1.1l.1-.1.1-.1c3.4-5 9.3-8.1 13.7-9.9.1-.1.3-.1.4-.2 3.2-1.2 6.7-2.2 10.6-2.9.1 0 .3 0 .4-.1 3.5-.6 7.4-1 12.8-1.2 1.5-.1 2.9-.1 4.4-.1 8.7 0 16.8 1.2 23.7 3.5 6.2 2.1 10.9 4.8 14.3 8.4 1.2 1.3 2.2 2.5 2.7 3.6 0 .2-.1.5-.2.7-.1.2-.1.4-.2.6-.1.4-.3.9-.4 1.3-.1.2-.1.3-.2.5-1.5 4.1-3.6 8.1-5.4 13.9-1.4 4.6-2.7 9-3.2 10.5-.1.3-.2.5-.2.6-.3 1-.9 1.9-1.8 2.9-3.6 4.1-8.7 6.9-13.8 9.3-4.8 2.3-9.5 4.2-14 5.7-.3.1-.5.2-.8.3-.1 0-.3.1-.4.1-.3.1-.6.2-.8.3h-.1c-.2.1-.4.1-.6.2-.2-.1-.5-.2-.7-.3-.1 0-.1 0-.2-.1-.2-.1-.4-.2-.6-.2-4.4-1.5-10.2-3.6-14.9-6-5.1-2.6-10.4-5.4-13.7-9.3-.8-.9-1.4-1.8-1.8-2.9-.1-.2-.2-.5-.3-.7-1.7-3.8-5.4-13-7.7-20.7-.5-1.8-1-3.4-1.3-4.5-.1-.2-.1-.4-.2-.6v-.1l-.3-.9c0-.1-.1-.3-.1-.4z" stroke="#017fa9" stroke-width=".276"/><path d="M59.8 27.5c.2-.3.5-.8.7-1 0 0 0-.1.1-.1l.1-.1c3.4-5 9.3-8.1 13.7-9.8.1-.1.3-.1.4-.2 3.2-1.2 6.7-2.2 10.6-2.9.1 0 .3 0 .4-.1 3.5-.6 7.3-1 12.7-1.2 1.5-.1 2.9-.1 4.4-.1 8.6 0 16.8 1.2 23.6 3.5 6.2 2.1 10.9 4.8 14.3 8.4 1.2 1.3 2.2 2.5 2.7 3.6 0 .2-.1.5-.2.7-.1.2-.1.4-.2.6-.1.4-.3.9-.4 1.3-.1.2-.1.3-.2.5-1.5 4.1-3.6 8-5.4 13.8-1.4 4.6-2.7 8.9-3.2 10.5-.1.3-.2.5-.2.6-.3.9-.9 1.8-1.8 2.9-3.6 4.1-8.7 6.9-13.8 9.3-4.8 2.2-9.4 4.2-13.9 5.7-.3.1-.5.2-.8.3-.1 0-.3.1-.4.1-.3.1-.6.2-.8.3h-.1c-.2.1-.4.1-.6.2-.2-.1-.5-.2-.7-.3-.1 0-.1 0-.2-.1-.2-.1-.4-.2-.6-.2-4.4-1.5-10.2-3.6-14.9-6-5.1-2.6-10.4-5.4-13.7-9.3-.8-.9-1.4-1.8-1.8-2.9-.1-.2-.2-.5-.3-.7-1.4-3.9-5.1-13.1-7.4-20.8-.5-1.8-1-3.4-1.3-4.5-.1-.2-.1-.4-.2-.6v-.1c-.1-.3-.2-.6-.3-.8-.2-.1-.2-.3-.3-.5z" stroke="#0181ab" stroke-width=".275"/><path d="M59.9 27.5c.2-.3.5-.8.7-1 0 0 0-.1.1-.1l.1-.1c3.4-5 9.3-8.1 13.6-9.8.1-.1.3-.1.4-.2 3.2-1.2 6.7-2.2 10.5-2.9.1 0 .3 0 .4-.1 3.5-.6 7.3-1 12.7-1.2 1.5-.1 2.9-.1 4.4-.1 8.6 0 16.8 1.2 23.6 3.5 6.2 2.1 10.9 4.8 14.3 8.4 1.2 1.3 2.2 2.5 2.7 3.5-.1.2-.1.5-.2.7-.1.2-.1.4-.2.6-.1.4-.3.9-.4 1.3-.1.2-.1.3-.2.5-1.5 4.1-3.6 8-5.4 13.8-1.4 4.6-2.7 8.9-3.2 10.5-.1.3-.2.5-.2.6-.3.9-.9 1.8-1.8 2.9-3.6 4.1-8.7 6.9-13.7 9.3-4.7 2.2-9.4 4.2-13.9 5.7-.3.1-.5.2-.8.3-.1 0-.3.1-.4.1-.3.1-.6.2-.8.3h-.1c-.2.1-.4.2-.6.2-.2-.1-.5-.2-.7-.3-.1 0-.1 0-.2-.1-.2-.1-.4-.2-.6-.2-4.4-1.5-10.2-3.6-14.9-6-5.1-2.6-10.4-5.4-13.7-9.3-.8-.9-1.4-1.8-1.8-2.9-.1-.2-.2-.5-.3-.7-1.4-3.9-5.1-13.1-7.4-20.8-.5-1.8-1-3.3-1.3-4.5-.1-.2-.1-.4-.2-.6v-.1c-.1-.3-.2-.6-.3-.8-.1 0-.2-.2-.2-.4z" stroke="#0182ae" stroke-width=".275"/><path d="M59.9 27.5c.2-.3.5-.8.7-1 0 0 0-.1.1-.1l.1-.1c3.4-4.9 9.3-8.1 13.6-9.8.1-.1.3-.1.4-.2 3.2-1.2 6.7-2.2 10.5-2.9.1 0 .3 0 .4-.1 3.5-.6 7.3-1 12.7-1.2 1.5-.1 2.9-.1 4.4-.1 8.6 0 16.8 1.2 23.6 3.5 6.2 2.1 10.8 4.8 14.2 8.3 1.2 1.3 2.2 2.5 2.7 3.5-.1.2-.1.5-.2.7-.1.2-.1.4-.2.6-.1.4-.3.9-.4 1.3-.1.2-.1.3-.2.5-1.5 4-3.6 8-5.4 13.8-1.4 4.5-2.7 8.9-3.2 10.4-.1.3-.2.5-.2.6-.3.9-.9 1.8-1.8 2.9-3.5 4.1-8.7 6.9-13.7 9.3-4.7 2.2-9.4 4.1-13.9 5.7-.3.1-.5.2-.7.3-.1 0-.3.1-.4.1-.3.1-.6.2-.8.3h-.1c-.2.1-.4.2-.6.2-.2-.1-.5-.2-.7-.3-.1 0-.1 0-.2-.1-.2-.1-.4-.2-.6-.2-4.4-1.5-10.1-3.6-14.9-6-5.1-2.6-10.4-5.4-13.7-9.3-.8-.9-1.4-1.8-1.8-2.9-.1-.2-.2-.5-.3-.7-1.4-4-5.1-13-7.4-20.7-.5-1.8-1-3.3-1.3-4.5-.1-.2-.1-.4-.2-.6v-.1c-.1-.3-.2-.6-.3-.8 0 .1-.1-.1-.2-.3z" stroke="#0084b0" stroke-width=".275"/><path d="M60 27.5c.2-.3.5-.8.6-1v-.1l.1-.1c3.4-4.9 9.3-8.1 13.6-9.8.1-.1.3-.1.4-.2 3.2-1.2 6.7-2.2 10.5-2.9.1 0 .3 0 .4-.1 3.5-.6 7.3-1 12.7-1.2 1.5-.1 2.9-.1 4.4-.1 8.6 0 16.8 1.2 23.6 3.5 6.2 2.1 10.8 4.8 14.2 8.3 1.2 1.3 2.2 2.5 2.7 3.5-.1.2-.2.5-.2.7-.1.2-.1.4-.2.6-.1.4-.3.9-.4 1.3-.1.2-.1.3-.2.5-1.5 4-3.6 8-5.4 13.7-1.4 4.5-2.7 8.8-3.2 10.4-.1.3-.2.5-.2.6-.3.9-.9 1.8-1.8 2.9-3.5 4.1-8.7 6.9-13.7 9.2-4.7 2.2-9.4 4.1-13.8 5.7-.2.1-.5.2-.7.3-.1 0-.3.1-.4.1-.3.1-.6.2-.8.3h-.1c-.2.1-.4.2-.6.2-.2-.1-.5-.2-.7-.3-.1 0-.1 0-.2-.1-.2-.1-.4-.2-.6-.2-4.4-1.5-10.1-3.6-14.9-6-5.1-2.6-10.4-5.4-13.7-9.3-.8-.9-1.4-1.8-1.8-2.9-.1-.2-.2-.5-.3-.7-1.4-4-5.1-13-7.4-20.7-.5-1.8-1-3.3-1.3-4.4-.1-.2-.1-.4-.2-.6v-.1c-.1-.3-.2-.6-.3-.8 0 .2-.1 0-.1-.2z" stroke="#0085b2" stroke-width=".275"/><path d="M101.5 74.1c-.2-.1-.5-.2-.7-.3-.2-.1-.5-.2-.8-.3-4.4-1.5-10.1-3.6-14.9-6-5.1-2.5-10.4-5.4-13.7-9.2-.8-1-1.4-1.8-1.8-2.9-1.2-3.5-5.2-13.2-7.6-21.4-.6-2.1-1.2-3.9-1.5-5.1-.1-.3-.2-.6-.3-.8-.1-.1-.1-.3-.2-.5.2-.3.5-.7.6-1l.1-.2c3.4-4.9 9.3-8 13.6-9.8 3.3-1.3 6.9-2.3 10.9-3 3.6-.6 7.5-1 13.1-1.3 1.5-.1 2.9-.1 4.4-.1 8.6 0 16.8 1.2 23.6 3.5 6.2 2.1 10.8 4.8 14.2 8.3 1.2 1.3 2.2 2.5 2.7 3.5-.1.2-.2.5-.2.7-.1.2-.1.4-.2.6-1.5 4.7-4 8.9-6 15.5-1.6 5.3-3.2 10.4-3.4 11-.3.9-.9 1.8-1.8 2.9-3.5 4.1-8.7 6.9-13.7 9.2-5.1 2.4-10.2 4.5-15 6.1-.3.1-.7.2-.9.4-.1 0-.4.1-.5.2z" stroke="#0087b4" stroke-width=".275"/></g><linearGradient id="SVGID_4_" gradientUnits="userSpaceOnUse" x1="101.587" y1="64.44" x2="101.587" y2="60.63"><stop offset=".231" stop-color="#090a0a"/><stop offset=".25" stop-color="#090c0d"/><stop offset=".422" stop-color="#091f27"/><stop offset=".6" stop-color="#0a2c39"/><stop offset=".788" stop-color="#0a3343"/><stop offset="1" stop-color="#0a3647"/></linearGradient><path d="M136.5 60.6c-.5 1.5-1.4 2.7-2.3 3.8-3.8 4.4-9.2 7.4-14.8 10-4.8 2.2-10 4.4-15.4 6.3-.8.3-1.7.7-2.3.8-.8.1-1.8-.5-2.6-.8-5.2-1.8-10.7-3.9-15.4-6.2-5.3-2.7-11-5.7-14.7-10-1-1.1-1.8-2.3-2.3-3.9h69.8z" fill="url(#SVGID_4_)"/><linearGradient id="SVGID_5_" gradientUnits="userSpaceOnUse" x1="100.07" y1="81.266" x2="102.094" y2="11.869"><stop offset=".165" stop-color="#090a0a"/><stop offset=".169" stop-color="#090c0d"/><stop offset=".211" stop-color="#091f27"/><stop offset=".255" stop-color="#0a2c39"/><stop offset=".3" stop-color="#0a3343"/><stop offset=".352" stop-color="#0a3647"/><stop offset=".364" stop-color="#103f51"/><stop offset=".405" stop-color="#205a6f"/><stop offset=".446" stop-color="#2c6d85"/><stop offset=".485" stop-color="#347992"/><stop offset=".522" stop-color="#367d96"/><stop offset=".736" stop-color="#53c5da"/><stop offset=".844" stop-color="#7ed2e1"/><stop offset=".943" stop-color="#a0dbe7"/><stop offset=".996" stop-color="#addfe9"/></linearGradient><path d="M101.5 81.3c-.2-.1-.5-.2-.7-.3-.3-.1-.5-.2-.8-.3-4.5-1.6-10.2-3.7-15-6.1-5.2-2.6-10.5-5.5-13.8-9.3-.8-1-1.4-1.8-1.8-2.9-1.2-3.5-5.3-20.3-7.7-28.5-.6-2.2-1.2-4-1.5-5.1-.1-.3-.2-.6-.3-.8-.1-.1-.1-.3-.2-.5.2-.3.5-.8.6-1l.1-.2c3.4-5 9.4-8.1 13.7-9.9 3.3-1.3 7-2.3 11-3 3.6-.6 7.6-1 13.2-1.3 1.5-.1 3-.1 4.4-.1 8.7 0 16.9 1.2 23.8 3.5 6.2 2.1 10.9 4.8 14.3 8.4 1.2 1.3 2.2 2.5 2.7 3.6-.1.2-.2.5-.2.7-.1.2-.1.4-.2.6-1.5 4.7-3.6 13.1-5.6 19.8-1.6 5.4-3.6 13.2-3.8 13.9-.3.9-.9 1.8-1.8 2.9-3.6 4.1-8.8 6.9-13.8 9.3-5.2 2.4-10.3 4.5-15.1 6.1-.3.1-.7.2-1 .4-.1-.1-.4 0-.5.1z" fill="url(#SVGID_5_)"/><linearGradient id="SVGID_6_" gradientUnits="userSpaceOnUse" x1="101.179" y1="13.656" x2="101.179" y2="69.877"><stop offset=".038" stop-color="#84a5b0"/><stop offset=".291" stop-color="#3c6779"/><stop offset=".429" stop-color="#071d22"/></linearGradient><path d="M71.9 50.4s-1.5-8.3 11.3-20.2L98.8 15s2.4-3.1 5.3 0 19.2 19.2 19.2 19.2 14.3 14.8 2.3 26.3c0 0-3.8 3.9-8.8 4.1 0 0 3.3 4.8-2.9 5.2h-27s-4.2-1.7-1.5-5.3c0 .1-12.7-1.5-13.5-14.1z" opacity=".2" fill="url(#SVGID_6_)"/><path d="M101.2 15s13.7 13.4 16.1 16c2.4 2.5 12.8 12.6 9.4 20H75.1s-2.6-6.2 4.5-14.4c7-8.2 21.2-20.2 21.6-21.6z" fill="#666768"/><path d="M146.4 26.7c-.8-1.7-2.1-3.4-3.5-4.7-4-4.2-9.4-7.1-15.5-9.1-8.1-2.7-18.4-4.1-29.3-3.6-4.9.2-9.3.6-13.5 1.3-4.2.7-8.1 1.8-11.6 3.2-5.9 2.4-11.6 5.9-15 10.9-.5.7-1.3 1.8-1.3 2.4-.1.7.4 1.8.7 2.5 1.7 5.7 7.7 26.4 9.3 30.8.5 1.5 1.4 2.7 2.3 3.9 3.7 4.3 9.4 7.4 14.7 10 4.7 2.4 10.1 4.4 15.4 6.2.8.3 1.8.8 2.6.8.6 0 1.5-.5 2.3-.8 5.4-1.8 10.7-4 15.4-6.3 5.5-2.6 10.9-5.6 14.8-10 .9-1.1 1.8-2.3 2.3-3.8.5-1.5 6.7-22.1 9.5-30.8.2-.9.8-2.2.4-2.9z" fill="none" stroke="#231f20" stroke-width="1.112"/><g><linearGradient id="SVGID_7_" gradientUnits="userSpaceOnUse" x1="101.178" y1="66.403" x2="101.178" y2="16.619"><stop offset=".269" stop-color="#fff"/><stop offset=".285" stop-color="#fafafa"/><stop offset=".34" stop-color="#f0f0f0"/><stop offset=".401" stop-color="#ececec"/><stop offset=".527" stop-color="#cac9ca"/><stop offset=".621" stop-color="#e7e6e6"/><stop offset=".753" stop-color="#fff"/><stop offset=".89" stop-color="#fff"/><stop offset=".978" stop-color="#eff0f0"/></linearGradient><path d="M101.4 16.6s15.4 15.2 15.8 15.6c.4.3 18.7 16.3 5.2 27 0 0-6.5 5.2-14.7-.3 0 0-3.2-1.7-3.8-6.5 0 0-3.3 13.3 10.5 14.1H88.1s11.8.2 10.7-14.2c0 0-1.1 7.8-9.6 9.2 0 0-10.7 2.1-13.9-9.1 0 0-2.5-7 6.5-16.4.1-.1 19.3-18.7 19.6-19.4z" fill="url(#SVGID_7_)"/><linearGradient id="SVGID_8_" gradientUnits="userSpaceOnUse" x1="101.206" y1="57.867" x2="101.206" y2="23.896"><stop offset=".258" stop-color="#fff"/><stop offset=".423" stop-color="#eff0f0"/><stop offset=".442" stop-color="#eaebea"/><stop offset=".472" stop-color="#e7e8e6"/><stop offset=".698" stop-color="#fff"/></linearGradient><path d="M103.9 52.3c.6 2.4 2.6 3.3 2.6 3.3 6.7 4.5 12 .3 12 .3 11-8.7-3.9-21.7-4.2-22-.3-.3-12.9-10-12.9-10-3.6 2-15.9 13.1-15.9 13.1-7.3 7.7-5.3 13.4-5.3 13.4 2.6 9.1 11.3 7.4 11.3 7.4 6.9-1.2 7.4-5.7 7.4-5.7l.2 2.4h4.4l.4-2.2z" fill="url(#SVGID_8_)"/></g><g><linearGradient id="SVGID_9_" gradientUnits="userSpaceOnUse" x1="186.914" y1="61.155" x2="186.914" y2="8.736"><stop offset="0" stop-color="#848788"/><stop offset=".091" stop-color="#9a9c9d"/><stop offset=".256" stop-color="#babcbc"/><stop offset=".427" stop-color="#d4d4d5"/><stop offset=".603" stop-color="#e6e6e6"/><stop offset=".788" stop-color="#f0f1f1"/><stop offset=".996" stop-color="#f4f4f4"/></linearGradient><path d="M185 61.8c-.9 0-1.9 0-2.9-.1l-3-.3c-1-.1-1.9-.3-2.8-.4-.9-.2-1.7-.4-2.3-.6V55h.5c.7.2 1.5.4 2.4.5.9.2 1.7.3 2.6.4l2.7.3c.9.1 1.8.1 2.7.1 3 0 5.2-.5 6.8-1.4 1.6-.9 2.4-2.5 2.4-4.6 0-.8-.2-1.5-.5-2.1-.3-.6-.8-1.1-1.3-1.6-.5-.4-1.2-.8-1.9-1.1-.7-.3-1.5-.5-2.3-.7l-5.6-1.4c-1.3-.3-2.5-.7-3.6-1.2s-2-1.2-2.8-2c-.8-.8-1.4-1.8-1.9-2.9-.5-1.1-.7-2.4-.7-3.9 0-1.7.3-3.2 1-4.6.7-1.4 1.7-2.5 2.9-3.5 1.3-.9 2.8-1.7 4.6-2.2 1.8-.5 3.8-.7 6-.7 1.9 0 3.7.1 5.4.4 1.7.2 3.2.5 4.6.8V29h-.5c-1.4-.3-2.9-.6-4.4-.8-1.5-.2-3.2-.3-5-.3-2.8 0-5 .4-6.4 1.3-1.5.9-2.2 2.3-2.2 4.2 0 .9.1 1.6.4 2.1.3.5.7.9 1.1 1.2.5.3 1.1.5 1.7.7.7.2 1.4.4 2.1.5l4.6 1.1c1.5.3 2.9.8 4.1 1.3 1.3.5 2.4 1.2 3.3 2 .9.9 1.7 1.9 2.2 3.2.5 1.3.8 2.8.8 4.7 0 2.1-.4 3.9-1.2 5.3-.8 1.4-2 2.6-3.4 3.5-1.4.9-3 1.6-4.8 2-1.5.6-3.4.8-5.4.8z" fill="url(#SVGID_9_)" stroke="#94989a" stroke-width=".278"/><linearGradient id="SVGID_10_" gradientUnits="userSpaceOnUse" x1="210.382" y1="61.154" x2="210.382" y2="8.736"><stop offset="0" stop-color="#848788"/><stop offset=".091" stop-color="#9a9c9d"/><stop offset=".256" stop-color="#babcbc"/><stop offset=".427" stop-color="#d4d4d5"/><stop offset=".603" stop-color="#e6e6e6"/><stop offset=".788" stop-color="#f0f1f1"/><stop offset=".996" stop-color="#f4f4f4"/></linearGradient><path d="M210.6 28.5h-6.4v-5.4h12.3v38.1h-5.9V28.5zm0-19.5h5.9v6.6h-5.9V9z" fill="url(#SVGID_10_)" stroke="#94989a" stroke-width=".278"/><linearGradient id="SVGID_11_" gradientUnits="userSpaceOnUse" x1="227.881" y1="61.154" x2="227.881" y2="8.736"><stop offset="0" stop-color="#848788"/><stop offset=".091" stop-color="#9a9c9d"/><stop offset=".256" stop-color="#babcbc"/><stop offset=".427" stop-color="#d4d4d5"/><stop offset=".603" stop-color="#e6e6e6"/><stop offset=".788" stop-color="#f0f1f1"/><stop offset=".996" stop-color="#f4f4f4"/></linearGradient><path d="M228.2 14.4h-6.5V9h12.4v52.3h-5.9V14.4z" fill="url(#SVGID_11_)" stroke="#94989a" stroke-width=".278"/><linearGradient id="SVGID_12_" gradientUnits="userSpaceOnUse" x1="257.2" y1="61.154" x2="257.2" y2="8.736"><stop offset="0" stop-color="#848788"/><stop offset=".091" stop-color="#9a9c9d"/><stop offset=".256" stop-color="#babcbc"/><stop offset=".427" stop-color="#d4d4d5"/><stop offset=".603" stop-color="#e6e6e6"/><stop offset=".788" stop-color="#f0f1f1"/><stop offset=".996" stop-color="#f4f4f4"/></linearGradient><path d="M251.6 58.9c-.8-1-1.6-2.2-2.4-3.6-.8-1.4-1.6-2.9-2.3-4.6-.8-1.7-1.4-3.5-2-5.4-.6-1.9-1.1-3.9-1.4-6-.4-2.1-.5-4.2-.5-6.4v-9.8h5.9v9.8c0 2.7.2 5.3.7 7.7.5 2.4 1.1 4.7 1.9 6.8.8 2.1 1.7 3.9 2.7 5.5 1 1.6 2 2.9 3 3.9 1-1 2-2.3 3-3.9s1.9-3.4 2.7-5.5c.8-2.1 1.4-4.3 1.9-6.8.5-2.4.7-5 .7-7.7v-9.8h5.9v9.8c0 2.2-.2 4.3-.6 6.4-.4 2.1-.9 4.1-1.5 6-.6 1.9-1.4 3.7-2.2 5.4-.8 1.7-1.6 3.2-2.5 4.6-.8 1.4-1.6 2.6-2.4 3.6-.8 1-1.5 1.8-2.1 2.3h-6.5c-.6-.5-1.3-1.3-2-2.3z" fill="url(#SVGID_12_)" stroke="#94989a" stroke-width=".278"/><linearGradient id="SVGID_13_" gradientUnits="userSpaceOnUse" x1="292.906" y1="61.155" x2="292.906" y2="8.736"><stop offset="0" stop-color="#848788"/><stop offset=".091" stop-color="#9a9c9d"/><stop offset=".256" stop-color="#babcbc"/><stop offset=".427" stop-color="#d4d4d5"/><stop offset=".603" stop-color="#e6e6e6"/><stop offset=".788" stop-color="#f0f1f1"/><stop offset=".996" stop-color="#f4f4f4"/></linearGradient><path d="M294.5 61.8c-2.3 0-4.4-.3-6.4-.9-2-.6-3.7-1.5-5.1-2.7-1.4-1.2-2.6-2.8-3.4-4.7-.8-1.9-1.2-4.3-1.2-7v-7.6c0-2.6.4-4.9 1.2-7 .8-2 2-3.7 3.4-5.1 1.5-1.4 3.2-2.5 5.1-3.2 2-.7 4.1-1.1 6.4-1.1 1.9 0 3.6.2 5.2.6 1.6.4 2.9 1.1 4.1 2 1.1.9 2 2 2.7 3.4.6 1.4 1 3 1 4.9 0 1.7-.3 3.2-.8 4.6-.5 1.3-1.3 2.5-2.3 3.4-1 .9-2.2 1.6-3.7 2.1s-3.1.7-5 .7h-11.3v2.2c0 1.8.3 3.3.8 4.5.5 1.2 1.2 2.3 2.1 3 .9.8 2 1.4 3.2 1.7 1.2.4 2.6.5 4.1.5 1.1 0 2.1-.1 3.2-.3 1-.2 2-.4 2.9-.7.9-.3 1.7-.5 2.4-.8.7-.3 1.3-.5 1.7-.7h.6V59c-.4.2-1 .4-1.8.7-.8.3-1.7.5-2.6.8-1 .3-2 .5-3.1.7-1.2.5-2.3.6-3.4.6zm-.5-22.4c1.5 0 2.7-.1 3.7-.4 1-.3 1.8-.6 2.3-1.2.6-.5 1-1.1 1.2-1.9.2-.7.4-1.6.4-2.5 0-1-.2-1.9-.5-2.6-.3-.7-.8-1.3-1.4-1.7-.6-.4-1.3-.7-2.2-.9-.9-.2-1.8-.3-2.9-.3-1.6 0-3.1.2-4.3.6-1.3.4-2.3 1.1-3.2 2-.9.9-1.5 2-2 3.4s-.7 3-.7 5v.5h9.6z" fill="url(#SVGID_13_)" stroke="#94989a" stroke-width=".278"/><linearGradient id="SVGID_14_" gradientUnits="userSpaceOnUse" x1="323.913" y1="61.154" x2="323.913" y2="8.736"><stop offset="0" stop-color="#848788"/><stop offset=".091" stop-color="#9a9c9d"/><stop offset=".256" stop-color="#babcbc"/><stop offset=".427" stop-color="#d4d4d5"/><stop offset=".603" stop-color="#e6e6e6"/><stop offset=".788" stop-color="#f0f1f1"/><stop offset=".996" stop-color="#f4f4f4"/></linearGradient><path d="M313.9 23.1h5.9v8.4l.5-.9c.7-1.1 1.5-2.1 2.2-3 .8-.9 1.6-1.7 2.5-2.4.9-.7 1.9-1.2 2.9-1.6 1-.4 2.2-.6 3.4-.6h2.4v6.5H331c-1.3 0-2.6.2-3.9.7-1.2.5-2.3 1.2-3.2 2l-4.3 4.3V61h-5.9V23.1z" fill="url(#SVGID_14_)" stroke="#94989a" stroke-width=".278"/><linearGradient id="SVGID_15_" gradientUnits="userSpaceOnUse" x1="363.711" y1="61.155" x2="363.711" y2="8.736"><stop offset="0" stop-color="#848788"/><stop offset=".091" stop-color="#9a9c9d"/><stop offset=".256" stop-color="#babcbc"/><stop offset=".427" stop-color="#d4d4d5"/><stop offset=".603" stop-color="#e6e6e6"/><stop offset=".788" stop-color="#f0f1f1"/><stop offset=".996" stop-color="#f4f4f4"/></linearGradient><path d="M363.7 61.8c-2.9 0-5.4-.5-7.5-1.4-2.1-.9-3.8-2.3-5.1-4-1.3-1.7-2.3-3.8-2.9-6.3-.6-2.5-.9-5.3-.9-8.4 0-2.9.3-5.5 1-7.8s1.7-4.4 3.1-6c1.4-1.7 3.1-3 5.1-3.9 2.1-.9 4.5-1.4 7.2-1.4 2.9 0 5.4.5 7.5 1.4 2.1.9 3.8 2.2 5.1 3.9 1.3 1.7 2.3 3.7 2.9 6 .6 2.3.9 5 .9 7.8 0 3.1-.3 5.9-1 8.4s-1.7 4.6-3.1 6.3c-1.4 1.7-3.1 3.1-5.1 4-2 .9-4.4 1.4-7.2 1.4zm0-5.4c2 0 3.7-.4 5.1-1.1 1.3-.7 2.4-1.8 3.2-3.1.8-1.3 1.4-2.9 1.7-4.6.3-1.8.5-3.7.5-5.9 0-2.1-.2-4-.5-5.7-.3-1.7-.9-3.1-1.7-4.3-.8-1.2-1.9-2.1-3.2-2.7-1.3-.6-3-1-5.1-1-2 0-3.7.3-5.1 1-1.3.6-2.4 1.5-3.2 2.7-.8 1.2-1.4 2.6-1.7 4.3-.3 1.7-.5 3.6-.5 5.7s.2 4.1.5 5.9c.3 1.8.9 3.3 1.7 4.6.8 1.3 1.9 2.3 3.2 3.1 1.4.7 3.1 1.1 5.1 1.1z" fill="url(#SVGID_15_)" stroke="#94989a" stroke-width=".278"/><linearGradient id="SVGID_16_" gradientUnits="userSpaceOnUse" x1="401.479" y1="61.155" x2="401.479" y2="8.735"><stop offset="0" stop-color="#848788"/><stop offset=".091" stop-color="#9a9c9d"/><stop offset=".256" stop-color="#babcbc"/><stop offset=".427" stop-color="#d4d4d5"/><stop offset=".603" stop-color="#e6e6e6"/><stop offset=".788" stop-color="#f0f1f1"/><stop offset=".996" stop-color="#f4f4f4"/></linearGradient><path d="M397.1 61.8c-1.5 0-2.9-.3-4.2-.7-1.3-.5-2.4-1.3-3.4-2.3-1-1.1-1.7-2.4-2.3-4.1-.6-1.7-.8-3.6-.8-6v-6c0-3 .6-5.7 1.7-8.1 1.1-2.4 2.6-4.5 4.5-6.2 1.9-1.7 4-3 6.4-3.9 2.4-.9 4.9-1.4 7.5-1.4h10.2v38.1h-5.9v-7l-2.7 2.7c-.7.7-1.4 1.4-2.1 2-.8.6-1.6 1.1-2.4 1.6-.9.4-1.8.8-2.8 1-1.3.2-2.4.3-3.7.3zm1.1-5.4c.9 0 1.9-.2 2.9-.6 1-.4 2-.9 2.9-1.5.9-.6 1.8-1.3 2.5-2 .8-.7 1.4-1.3 2-1.9l2.2-2.2V28.5h-4.3c-2 0-3.9.3-5.6 1-1.7.7-3.2 1.6-4.4 2.8-1.2 1.2-2.2 2.7-2.9 4.5-.7 1.7-1 3.7-1 5.9v6c0 1.5.2 2.7.5 3.7s.7 1.8 1.3 2.4c.5.6 1.2 1 1.9 1.2.5.2 1.2.4 2 .4z" fill="url(#SVGID_16_)" stroke="#94989a" stroke-width=".278"/><linearGradient id="SVGID_17_" gradientUnits="userSpaceOnUse" x1="440.516" y1="61.154" x2="440.516" y2="8.736"><stop offset="0" stop-color="#848788"/><stop offset=".091" stop-color="#9a9c9d"/><stop offset=".256" stop-color="#babcbc"/><stop offset=".427" stop-color="#d4d4d5"/><stop offset=".603" stop-color="#e6e6e6"/><stop offset=".788" stop-color="#f0f1f1"/><stop offset=".996" stop-color="#f4f4f4"/></linearGradient><path d="M425.8 9h5.9v28.9h3.7l12.4-14.7h6.8v.5l-14.3 16.6 14.8 20.4v.5h-6.8l-13-18h-3.7v18h-5.9V9z" fill="url(#SVGID_17_)" stroke="#94989a" stroke-width=".278"/></g><g><path class="st73" d="M179.9 85.1c-.6 0-1.1-.1-1.5-.2-.4-.2-.8-.4-1.1-.7-.3-.3-.5-.7-.7-1.1-.1-.5-.2-1-.2-1.6v-.6c0-.6.1-1.1.2-1.5s.4-.8.7-1.1.6-.6 1.1-.7c.4-.2.9-.2 1.5-.2s1.1.1 1.5.2c.4.2.8.4 1.1.7.3.3.5.7.7 1.1.2.5.2 1 .2 1.6v.6c0 .6-.1 1.1-.2 1.5-.2.5-.4.8-.7 1.1-.3.3-.6.6-1.1.7-.5.2-1 .2-1.5.2zm0-.8c.4 0 .7-.1 1-.2s.6-.3.8-.5.4-.5.5-.9c.1-.4.2-.8.2-1.3v-.6c0-.5-.1-.9-.2-1.3s-.3-.6-.5-.9c-.2-.2-.5-.4-.8-.5-.3-.1-.7-.2-1-.2s-.7.1-1 .2c-.3.1-.6.3-.8.5-.2.2-.4.5-.5.9-.1.4-.2.8-.2 1.3v.6c0 .5.1.9.2 1.3s.3.6.5.9.5.4.8.5.6.2 1 .2zM201.2 77.3h.7l4.5 5.7v-5.7h1v7.8h-.7l-4.5-5.7v5.7h-1v-7.8zM226.4 84.5c-.4-.4-.6-.9-.6-1.6v-5.7h1v5.7c0 .4.1.7.3.9.2.2.5.3.8.3h2.3v.8H228c-.7.2-1.3 0-1.6-.4zM247.8 77.3h1v7.8h-1v-7.8zM267.2 77.3h.7l4.5 5.7v-5.7h1v7.8h-.7l-4.5-5.7v5.7h-1v-7.8zM292.3 84.6c-.4-.3-.6-.9-.6-1.6v-5.7h4.7v.8h-3.6v2.4h3.3v.9h-3.3v1.7c0 .4.1.7.3.9.2.2.5.3.8.3h2.5v.8H294c-.8 0-1.3-.2-1.7-.5zM335.2 84.9c-.5-.2-.8-.4-1.1-.7-.3-.3-.5-.7-.7-1.1s-.2-.9-.2-1.4v-1c0-.6.1-1.1.3-1.5.2-.4.4-.8.8-1.1.3-.3.8-.5 1.2-.7.5-.1 1-.2 1.6-.2h.6c.2 0 .4.1.5.1.2 0 .3.1.5.1.1 0 .2.1.3.1v1.7h-.9v-1.1c-.2 0-.3-.1-.5-.1h-.6c-.4 0-.7 0-1.1.1-.3.1-.6.2-.9.5-.2.2-.4.5-.6.8-.1.3-.2.7-.2 1.2v1c0 .4.1.8.2 1.1.1.3.3.6.5.8.2.2.5.4.8.5.3.1.7.2 1.1.2h1c.2 0 .3-.1.5-.1s.3-.1.4-.1.2-.1.3-.1h.1v.8c-.1 0-.2.1-.3.1s-.3.1-.4.1c-.2 0-.3.1-.5.1h-1c-.7.1-1.3.1-1.7-.1zM356.2 85c.1-.3.2-.7.2-.9.1-.3.2-.5.2-.8s.2-.5.2-.7c.1-.2.2-.5.2-.8l.3-.9.3-.9.3-.9c.1-.3.2-.5.3-.8l.3-.6c.1-.2.2-.3.2-.4h1.4c.1.1.1.2.2.4l.3.6c.1.2.2.5.3.8l.3.9.3.9.3.9c.1.3.2.5.2.8s.2.5.2.7c.1.2.1.5.2.8.1.3.2.6.2.9v.1h-1c0-.2-.1-.4-.1-.5 0-.2-.1-.3-.1-.5s-.1-.3-.1-.4c0-.1-.1-.3-.1-.4h-3.8c0 .1-.1.3-.1.4 0 .1-.1.3-.1.4 0 .2-.1.3-.1.5s-.1.4-.1.6l-.8-.2zm5.1-2.7c0-.1-.1-.2-.1-.3 0-.1-.1-.2-.1-.3-.1-.3-.2-.7-.3-1s-.2-.7-.4-1c-.1-.3-.2-.6-.4-.9-.1-.3-.3-.5-.4-.8-.1.2-.3.5-.4.8s-.3.6-.4.9c-.1.3-.2.6-.4 1-.1.3-.2.7-.3 1 0 .1-.1.2-.1.3 0 .1-.1.2-.1.3h3.4zM381.8 85.1c-.2 0-.4 0-.6-.1-.2 0-.4-.1-.6-.1-.2 0-.3-.1-.4-.1V84h.1c.1 0 .2.1.4.1s.3.1.5.1.4.1.6.1h.8c.3 0 .5 0 .7-.1.2 0 .4-.1.5-.2.2-.1.3-.2.4-.4.1-.2.1-.4.1-.6 0-.2 0-.4-.1-.5s-.1-.3-.2-.4-.2-.2-.4-.2c-.1-.1-.3-.1-.5-.2l-1.1-.3c-.1 0-.3-.1-.4-.1-.1 0-.3-.1-.4-.2-.1-.1-.3-.2-.4-.3-.1-.1-.2-.2-.3-.4-.1-.1-.2-.3-.2-.5-.1-.2-.1-.4-.1-.6 0-.3.1-.6.2-.9.1-.3.3-.5.5-.7s.5-.3.8-.4.7-.2 1.1-.2h.8c.2 0 .4 0 .5.1s.3.1.5.1.3.1.4.1v.8c-.1 0-.2-.1-.4-.1-.1 0-.3-.1-.5-.1s-.3 0-.5-.1h-.6c-.3 0-.5 0-.7.1-.2 0-.4.1-.5.2-.1.1-.2.2-.3.4-.1.2-.1.3-.1.6 0 .2 0 .4.1.5.1.1.1.2.3.3s.2.2.4.2c.1.1.3.1.5.1l1.1.3c.2.1.4.1.6.2.2.1.4.2.6.4.2.2.3.4.4.6.1.3.2.6.2.9 0 .3-.1.6-.2.9s-.3.5-.5.7c-.2.2-.5.3-.9.4s-.7.2-1.2.2h-.3c-.3.2-.5.2-.7.2zM403.4 77.3h1v7.8h-1v-7.8zM422.8 77.3h.7L428 83v-5.7h1v7.8h-.7l-4.5-5.7v5.7h-1v-7.8zM450.4 85.1c-.6 0-1.1-.1-1.5-.2s-.8-.4-1.1-.7c-.3-.3-.5-.7-.7-1.1-.1-.5-.2-1-.2-1.6v-.6c0-.6.1-1.1.2-1.5s.4-.8.7-1.1.6-.6 1.1-.7.9-.2 1.5-.2 1.1.1 1.5.2c.4.2.8.4 1.1.7.3.3.5.7.7 1.1s.2 1 .2 1.6v.6c0 .6-.1 1.1-.2 1.5s-.4.8-.7 1.1c-.3.3-.7.6-1.1.7-.5.2-1 .2-1.5.2zm0-.8c.4 0 .7-.1 1-.2.3-.1.6-.3.8-.5.2-.2.4-.5.5-.9.1-.4.2-.8.2-1.3v-.6c0-.5 0-.9-.2-1.3-.1-.4-.3-.6-.5-.9-.2-.2-.5-.4-.8-.5-.3-.1-.7-.2-1-.2-.4 0-.7.1-1 .2-.3.1-.6.3-.8.5-.2.2-.4.5-.5.9-.1.4-.2.8-.2 1.3v.6c0 .5.1.9.2 1.3s.3.6.5.9c.2.2.5.4.8.5.2.1.6.2 1 .2z"/></g></svg>